<?xml version="1.0" encoding="utf-8"?>
<!-- Generator: Adobe Illustrator 28.1.0, SVG Export Plug-In . SVG Version: 6.00 Build 0)  -->
<svg version="1.1" id="Layer_1" xmlns="http://www.w3.org/2000/svg" xmlns:xlink="http://www.w3.org/1999/xlink" x="0px" y="0px"
	 viewBox="0 0 62.3 65.6" style="enable-background:new 0 0 62.3 65.6;" xml:space="preserve">
<style type="text/css">
	.st0{fill:#DFE9F2;}
</style>
<path class="st0" d="M61.4,32.7c0,0.4-0.1,0.7-0.3,0.9L32.5,62c-0.2,0.2-0.5,0.3-0.9,0.3s-0.7-0.1-0.9-0.3L2,33.7
	c-0.8-0.8-0.8-1.4,0-1.8L30.6,3.4c0.4-0.4,0.8-0.6,1-0.6s0.5,0.2,0.9,0.6l28.6,28.4C61.3,32,61.4,32.3,61.4,32.7L61.4,32.7z
	 M31.6,6.2L4.8,32.7l26.8,26.6l26.8-26.6L31.6,6.2L31.6,6.2z M31.6,19.6l13.2,12.5L43.3,34l-10.5-9.8v22h-2.5v-22L19.9,34l-1.5-1.8
	C18.3,32.1,31.6,19.6,31.6,19.6z"/>
</svg>
