<?xml version="1.0" encoding="utf-8"?>
<!-- Generator: Adobe Illustrator 28.1.0, SVG Export Plug-In . SVG Version: 6.00 Build 0)  -->
<svg version="1.1" id="Layer_1" xmlns="http://www.w3.org/2000/svg" xmlns:xlink="http://www.w3.org/1999/xlink" x="0px" y="0px"
	 viewBox="0 0 400.6 115.7" style="enable-background:new 0 0 400.6 115.7;" xml:space="preserve">
<style type="text/css">
	.st0{fill:url(#SVGID_1_);}
	.st1{fill:url(#SVGID_00000109030572035784944240000012683495580844270235_);}
	.st2{fill:url(#SVGID_00000066506679315043156040000017283212106162205065_);}
	.st3{fill:url(#SVGID_00000035529402070896709700000009579285093994165693_);}
	.st4{fill:url(#SVGID_00000062907750946501022730000002921870424064366265_);}
	.st5{fill:url(#SVGID_00000183249097608935659190000012169519954482350750_);}
	.st6{fill:url(#SVGID_00000176005419066053682870000006862927520229721986_);}
</style>
<linearGradient id="SVGID_1_" gradientUnits="userSpaceOnUse" x1="38.0455" y1="7.6" x2="38.0455" y2="78.8" gradientTransform="matrix(1 0 0 -1 0 118)">
	<stop  offset="0" style="stop-color:#253F5D"/>
	<stop  offset="5.333543e-03" style="stop-color:#28425F"/>
	<stop  offset="8.410770e-02" style="stop-color:#53667D"/>
	<stop  offset="0.1683" style="stop-color:#788798"/>
	<stop  offset="0.2589" style="stop-color:#98A2AE"/>
	<stop  offset="0.3567" style="stop-color:#B1B8C0"/>
	<stop  offset="0.4645" style="stop-color:#C5CACF"/>
	<stop  offset="0.5873" style="stop-color:#D3D6D8"/>
	<stop  offset="0.7383" style="stop-color:#DCDDDE"/>
	<stop  offset="1" style="stop-color:#DEDFE0"/>
</linearGradient>
<path class="st0" d="M59,47.4c4.7,5.5,7.1,13.3,7.1,23.5c0,11-2.5,19.5-7.4,25.3c-5,5.9-12.1,8.8-21.4,8.8c-5.9,0-10.9-1.3-15-3.8
	l2.3-1.7c3.6,2,7.8,3.1,12.7,3.1c8.4,0,14.9-2.7,19.5-8.1c4.5-5.4,6.8-13.2,6.8-23.3c0-9.6-2.2-16.8-6.5-21.8s-10.6-7.5-18.7-7.5
	c-8.4,0-14.9,2.6-19.3,7.8s-6.7,12.7-6.7,22.6c0,5.5,0.7,10.2,2.1,14.3c1.4,4.1,3.4,7.4,5.9,9.9l39.9-28.1v1.3L2.5,110.4H2.1
	c-0.2,0-0.3,0-0.4-0.1c-0.2-0.3-0.1-0.6,0.1-0.8L18.2,98c-5.7-5.6-8.5-14.2-8.5-25.6c0-10.7,2.5-18.9,7.4-24.6s12.1-8.6,21.5-8.6
	C47.4,39.2,54.3,41.9,59,47.4L59,47.4z M8.7,110c-0.1,0-0.1,0-0.1-0.1l0.1-0.1l0.1,0.1C8.8,110,8.8,110,8.7,110z M15.3,109.9
	c0,0.1,0,0.1-0.1,0.1s-0.1,0-0.1-0.1l0.1-0.1C15.3,109.8,15.3,109.8,15.3,109.9z M21.8,109.9c0,0.1,0,0.1-0.1,0.1l-0.1-0.1l0.1-0.1
	C21.7,109.8,21.8,109.8,21.8,109.9z M28.2,110c-0.2,0-0.3,0-0.3-0.1l0.3-0.1l0.1,0.1C28.4,110,28.3,110,28.2,110z M35,97.3
	c0,0.3-0.1,0.4-0.3,0.4c-0.3,0-0.4-0.1-0.4-0.4s0.1-0.4,0.4-0.4C34.9,97,35,97.1,35,97.3z M34.7,110C34.6,110,34.6,110,34.7,110
	v-0.2V110C34.8,110,34.8,110,34.7,110z M41.5,91.1c0,0.3-0.1,0.4-0.4,0.4c-0.3,0-0.4-0.1-0.4-0.4s0.1-0.4,0.4-0.4
	S41.5,90.8,41.5,91.1z M41.5,97.3c0,0.3-0.1,0.4-0.4,0.4c-0.2,0-0.3-0.1-0.3-0.4s0.1-0.4,0.3-0.4C41.4,97,41.5,97.1,41.5,97.3z
	 M41.3,109.9C41.3,110,41.3,110,41.3,109.9c-0.2,0.1-0.2,0.1-0.2,0H41.3C41.2,109.8,41.3,109.8,41.3,109.9z M48.1,84.8
	c0,0.3-0.2,0.5-0.5,0.5s-0.5-0.2-0.5-0.5s0.2-0.5,0.5-0.5S48.1,84.4,48.1,84.8z M48.1,91.1c0,0.3-0.2,0.4-0.5,0.4s-0.4-0.1-0.4-0.4
	s0.1-0.4,0.4-0.4C48,90.7,48.1,90.8,48.1,91.1z M47.7,109.9C47.7,110,47.7,110,47.7,109.9h-0.2H47.7
	C47.7,109.8,47.7,109.8,47.7,109.9z M54.7,78.5c0,0.3-0.2,0.5-0.5,0.5c-0.4,0-0.6-0.2-0.6-0.5c0-0.4,0.2-0.6,0.6-0.6
	S54.7,78.1,54.7,78.5z M54.7,84.8c0,0.3-0.2,0.5-0.5,0.5s-0.5-0.2-0.5-0.5s0.2-0.5,0.5-0.5S54.7,84.4,54.7,84.8z M54.6,91.1
	c0,0.3-0.1,0.4-0.4,0.4c-0.3,0-0.5-0.1-0.5-0.4s0.2-0.4,0.5-0.4C54.5,90.7,54.6,90.8,54.6,91.1z M54.2,110
	C54.1,110,54.1,110,54.2,110v-0.2V110C54.3,110,54.3,110,54.2,110z M60.9,103.6c0,0.2-0.1,0.3-0.3,0.3s-0.3-0.1-0.3-0.3
	s0.1-0.3,0.3-0.3C60.8,103.4,60.9,103.4,60.9,103.6z M60.8,109.9C60.8,110,60.8,110,60.8,109.9c-0.2,0.1-0.2,0.1-0.2,0H60.8
	C60.8,109.8,60.8,109.8,60.8,109.9z M67.5,91.1c0,0.3-0.1,0.4-0.4,0.4s-0.4-0.1-0.4-0.4s0.1-0.4,0.4-0.4S67.5,90.8,67.5,91.1z
	 M67.5,97.3c0,0.3-0.1,0.4-0.4,0.4c-0.2,0-0.3-0.1-0.3-0.4s0.1-0.4,0.3-0.4C67.4,97,67.5,97.1,67.5,97.3z M67.4,103.6
	c0,0.2-0.1,0.3-0.3,0.3s-0.3-0.1-0.3-0.3s0.1-0.3,0.3-0.3S67.4,103.4,67.4,103.6z M67.3,109.9C67.3,110,67.3,110,67.3,109.9h-0.2
	H67.3C67.2,109.8,67.3,109.8,67.3,109.9z M74,60.1l-5,3.6l-0.1-1.3l4.5-3.2c0.3-0.3,0.6-0.3,0.8,0.1C74.3,59.6,74.2,59.9,74,60.1
	L74,60.1z M74.5,66c0,0.5-0.3,0.8-0.9,0.8c-0.5,0-0.8-0.3-0.8-0.8c0-0.6,0.3-0.9,0.8-0.9C74.2,65.1,74.5,65.4,74.5,66z M74.4,72.2
	c0,0.4-0.3,0.6-0.8,0.6c-0.4,0-0.6-0.2-0.6-0.6c0-0.5,0.2-0.8,0.6-0.8C74.1,71.5,74.4,71.7,74.4,72.2z M74.2,78.5
	c0,0.3-0.2,0.5-0.6,0.5c-0.3,0-0.5-0.2-0.5-0.5c0-0.4,0.2-0.6,0.5-0.6C74,77.9,74.2,78.1,74.2,78.5z M74.1,84.8
	c0,0.3-0.2,0.5-0.5,0.5s-0.5-0.2-0.5-0.5s0.2-0.5,0.5-0.5S74.1,84.4,74.1,84.8z M74.1,91.1c0,0.3-0.2,0.4-0.5,0.4s-0.4-0.1-0.4-0.4
	s0.1-0.4,0.4-0.4S74.1,90.8,74.1,91.1z M74,97.3c0,0.3-0.1,0.4-0.4,0.4c-0.2,0-0.3-0.1-0.3-0.4s0.1-0.4,0.3-0.4
	C73.9,97,74,97.1,74,97.3z M73.9,103.6c0,0.2-0.1,0.3-0.3,0.3c-0.1,0-0.1-0.1-0.1-0.3s0-0.3,0.1-0.3
	C73.8,103.4,73.9,103.4,73.9,103.6z M73.9,109.9c0,0.1-0.1,0.1-0.3,0.1l-0.1-0.1l0.1-0.1C73.7,109.8,73.8,109.8,73.9,109.9z"/>
<linearGradient id="SVGID_00000109730613710151290730000009418137695334252477_" gradientUnits="userSpaceOnUse" x1="103.8893" y1="7.6" x2="103.8893" y2="78.7" gradientTransform="matrix(1 0 0 -1 0 118)">
	<stop  offset="0" style="stop-color:#253F5D"/>
	<stop  offset="5.333543e-03" style="stop-color:#28425F"/>
	<stop  offset="8.410770e-02" style="stop-color:#53667D"/>
	<stop  offset="0.1683" style="stop-color:#788798"/>
	<stop  offset="0.2589" style="stop-color:#98A2AE"/>
	<stop  offset="0.3567" style="stop-color:#B1B8C0"/>
	<stop  offset="0.4645" style="stop-color:#C5CACF"/>
	<stop  offset="0.5873" style="stop-color:#D3D6D8"/>
	<stop  offset="0.7383" style="stop-color:#DCDDDE"/>
	<stop  offset="1" style="stop-color:#DEDFE0"/>
</linearGradient>
<path style="fill:url(#SVGID_00000109730613710151290730000009418137695334252477_);" d="M74,59.2l4.7,3.8c-0.1,0.2-0.1,0.4-0.1,0.6
	c0,0.3,0,0.5-0.1,0.6l-5-4.2c-0.3-0.3-0.4-0.5-0.1-0.8C73.5,59,73.7,59,74,59.2z M80.1,91.1c0,0.3-0.1,0.4-0.4,0.4s-0.4-0.1-0.4-0.4
	s0.1-0.4,0.4-0.4C79.9,90.7,80.1,90.8,80.1,91.1z M80.1,97.3c0,0.3-0.1,0.4-0.4,0.4s-0.4-0.1-0.4-0.4s0.1-0.4,0.4-0.4
	C79.9,97,80.1,97.1,80.1,97.3z M79.9,103.6c0,0.2-0.1,0.3-0.3,0.3s-0.3-0.1-0.3-0.3s0.1-0.3,0.3-0.3S79.9,103.4,79.9,103.6z
	 M79.8,109.9C79.8,110,79.8,110,79.8,109.9c-0.2,0.1-0.2,0.1-0.2,0H79.8C79.8,109.8,79.8,109.8,79.8,109.9z M112.4,102.3
	c1.4-0.2,2.8-0.5,4.3-1l2.2,1.8c-3.5,1.3-7.1,1.9-10.6,1.9c-8.9,0-15.6-2.8-20.2-8.5c-4.6-5.6-6.9-13.7-6.9-24.2
	c0-10.7,2.4-18.9,7.3-24.5c4.9-5.7,11.9-8.5,21-8.5c3.3,0,6.5,0.5,9.8,1.5s6.2,2.4,8.8,4.2l-0.8,2.4h-0.8c-2.4-1.8-5.1-3.2-8-4.2
	s-5.9-1.5-9-1.5c-8.4,0-14.7,2.6-19.1,7.8s-6.5,12.8-6.5,22.7c0,9.8,2.1,17.3,6.3,22.5c4.2,5.2,10.2,7.8,18,7.8
	C109.6,102.6,111,102.5,112.4,102.3L112.4,102.3z M85.9,103.6c0,0.2,0,0.3-0.1,0.3c-0.2,0-0.3-0.1-0.3-0.3s0.1-0.3,0.3-0.3
	C85.8,103.4,85.9,103.4,85.9,103.6z M85.7,110C85.6,110,85.6,110,85.7,110v-0.2V110C85.9,110,85.8,110,85.7,110z M134.5,110.3
	c-0.1,0.1-0.3,0.1-0.5,0.1s-0.3,0-0.3-0.1L87.2,71.6v-1.5L122,99.2c1.8-0.9,3.6-2,5.4-3.3l0.8,0.3l-0.3,2.4
	c-0.6,0.4-1.2,0.8-1.9,1.2c-0.6,0.4-1.3,0.8-2,1.2l10.3,8.6C134.6,109.7,134.6,109.9,134.5,110.3L134.5,110.3z M92.2,84.8
	c0,0.3-0.2,0.5-0.5,0.5s-0.5-0.2-0.5-0.5s0.2-0.5,0.5-0.5S92.2,84.4,92.2,84.8z M91.9,109.9c0,0.1-0.1,0.1-0.3,0.1l-0.1-0.1l0.1-0.1
	C91.8,109.8,91.9,109.8,91.9,109.9z M98.3,84.8c0,0.3-0.2,0.5-0.5,0.5s-0.5-0.2-0.5-0.5s0.2-0.5,0.5-0.5
	C98.1,84.3,98.3,84.4,98.3,84.8z M98.2,91.1c0,0.3-0.1,0.4-0.4,0.4s-0.4-0.1-0.4-0.4s0.1-0.4,0.4-0.4C98,90.7,98.2,90.8,98.2,91.1z
	 M97.9,109.9C97.9,110,97.9,110,97.9,109.9h-0.2H97.9C97.9,109.8,97.9,109.8,97.9,109.9z M104.2,91.1c0,0.3-0.1,0.4-0.4,0.4
	s-0.4-0.1-0.4-0.4s0.1-0.4,0.4-0.4S104.2,90.8,104.2,91.1z M104.1,97.3c0,0.3-0.1,0.4-0.3,0.4c-0.3,0-0.4-0.1-0.4-0.4
	s0.1-0.4,0.4-0.4C104,97,104.1,97.1,104.1,97.3z M103.8,110C103.7,110,103.7,110,103.8,110v-0.2V110C104,110,103.9,110,103.8,110z
	 M110.2,97.3c0,0.3-0.1,0.4-0.3,0.4c-0.3,0-0.4-0.1-0.4-0.4s0.1-0.4,0.4-0.4C110.1,97,110.2,97.1,110.2,97.3z M109.9,110
	c-0.2,0-0.3,0-0.3-0.1l0.3-0.1V110C110,110,110,110,109.9,110z M116,109.9C116,110,116,110,116,109.9h-0.2H116
	C115.9,109.8,116,109.8,116,109.9z M122.1,109.9C122.1,110,122.1,110,122.1,109.9c-0.2,0.1-0.2,0.1-0.2,0H122.1
	C122,109.8,122.1,109.8,122.1,109.9z M128,110C127.9,110,127.9,110,128,110v-0.2l0.1,0.1C128.1,110,128.1,110,128,110z"/>
<linearGradient id="SVGID_00000183927153800886794340000000854776121525079728_" gradientUnits="userSpaceOnUse" x1="161.8455" y1="7.6" x2="161.8455" y2="78.3" gradientTransform="matrix(1 0 0 -1 0 118)">
	<stop  offset="0" style="stop-color:#253F5D"/>
	<stop  offset="5.333543e-03" style="stop-color:#28425F"/>
	<stop  offset="8.410770e-02" style="stop-color:#53667D"/>
	<stop  offset="0.1683" style="stop-color:#788798"/>
	<stop  offset="0.2589" style="stop-color:#98A2AE"/>
	<stop  offset="0.3567" style="stop-color:#B1B8C0"/>
	<stop  offset="0.4645" style="stop-color:#C5CACF"/>
	<stop  offset="0.5873" style="stop-color:#D3D6D8"/>
	<stop  offset="0.7383" style="stop-color:#DCDDDE"/>
	<stop  offset="1" style="stop-color:#DEDFE0"/>
</linearGradient>
<path style="fill:url(#SVGID_00000183927153800886794340000000854776121525079728_);" d="M189.7,60.1l-55.3,50.2
	c0,0.1-0.1,0.1-0.4,0.1c-0.2,0-0.3,0-0.4-0.1c-0.2-0.3-0.1-0.5,0.1-0.8L160.4,85V42.3h-9.6l-11.1,0.1l-0.4-0.5l0.4-2.2h43.9l0.3,0.5
	l-0.4,2.2l-10.7-0.1H163v40.5l26-23.6c0.2-0.2,0.4-0.2,0.8,0C190,59.5,189.9,59.8,189.7,60.1L189.7,60.1z M140.3,109.9
	c0,0.1,0,0.1-0.1,0.1s-0.1,0-0.1-0.1l0.1-0.1C140.2,109.8,140.3,109.8,140.3,109.9z M146.5,103.6c0,0.2,0,0.3-0.1,0.3
	c-0.2,0-0.3-0.1-0.3-0.3s0.1-0.3,0.3-0.3C146.4,103.4,146.5,103.4,146.5,103.6z M146.4,110c-0.2,0-0.3,0-0.3-0.1l0.3-0.1l0.1,0.1
	C146.5,110,146.4,110,146.4,110z M152.7,103.6c0,0.2-0.1,0.3-0.3,0.3s-0.3-0.1-0.3-0.3s0.1-0.3,0.3-0.3S152.7,103.4,152.7,103.6z
	 M152.6,109.9c0,0.1,0,0.1-0.1,0.1l-0.1-0.1l0.1-0.1C152.5,109.8,152.6,109.8,152.6,109.9z M158.6,110c-0.1,0-0.1,0-0.1-0.1l0.1-0.1
	l0.1,0.1C158.8,110,158.7,110,158.6,110z M163,89.5v15h-2.6V92L163,89.5z M164.8,109.9c0,0.1,0,0.1-0.1,0.1l-0.1-0.1l0.1-0.1
	C164.8,109.8,164.8,109.8,164.8,109.9z M171.4,84.8c0,0.3-0.2,0.5-0.5,0.5s-0.5-0.2-0.5-0.5s0.2-0.5,0.5-0.5
	C171.3,84.3,171.4,84.4,171.4,84.8z M171.3,91.1c0,0.3-0.1,0.4-0.4,0.4c-0.3,0-0.4-0.1-0.4-0.4s0.1-0.4,0.4-0.4
	S171.3,90.8,171.3,91.1z M171.2,97.3c0,0.3-0.1,0.4-0.3,0.4c-0.3,0-0.4-0.1-0.4-0.4s0.1-0.4,0.4-0.4C171.1,97,171.2,97.1,171.2,97.3
	z M171.2,103.6c0,0.2-0.1,0.3-0.3,0.3s-0.3-0.1-0.3-0.3s0.1-0.3,0.3-0.3S171.2,103.4,171.2,103.6z M170.9,110c-0.1,0-0.1,0-0.1-0.1
	l0.1-0.1l0.1,0.1C171,110,171,110,170.9,110z M177.6,78.5c0,0.3-0.2,0.5-0.6,0.5c-0.3,0-0.5-0.2-0.5-0.5c0-0.4,0.2-0.6,0.5-0.6
	C177.4,77.9,177.6,78.1,177.6,78.5z M177.5,84.8c0,0.3-0.2,0.5-0.5,0.5s-0.5-0.2-0.5-0.5s0.2-0.5,0.5-0.5S177.5,84.4,177.5,84.8z
	 M177.5,91.1c0,0.3-0.2,0.4-0.5,0.4s-0.4-0.1-0.4-0.4s0.1-0.4,0.4-0.4C177.3,90.7,177.5,90.8,177.5,91.1z M177.4,97.3
	c0,0.3-0.1,0.4-0.4,0.4c-0.2,0-0.3-0.1-0.3-0.4s0.1-0.4,0.3-0.4C177.2,97,177.4,97.1,177.4,97.3z M177.2,103.6
	c0,0.2-0.1,0.3-0.3,0.3c-0.1,0-0.1-0.1-0.1-0.3s0-0.3,0.1-0.3C177.2,103.4,177.2,103.4,177.2,103.6z M177.1,109.9
	c0,0.1,0,0.1-0.1,0.1l-0.1-0.1l0.1-0.1C177.1,109.8,177.1,109.8,177.1,109.9z M183.8,72.2c0,0.4-0.2,0.6-0.6,0.6s-0.6-0.2-0.6-0.6
	c0-0.5,0.2-0.8,0.6-0.8S183.8,71.7,183.8,72.2z M183.8,78.5c0,0.3-0.2,0.5-0.6,0.5s-0.6-0.2-0.6-0.5c0-0.4,0.2-0.6,0.6-0.6
	S183.8,78.1,183.8,78.5z M183.7,84.8c0,0.3-0.2,0.5-0.5,0.5s-0.5-0.2-0.5-0.5s0.2-0.5,0.5-0.5S183.7,84.4,183.7,84.8z M183.6,91.1
	c0,0.3-0.1,0.4-0.4,0.4s-0.4-0.1-0.4-0.4s0.1-0.4,0.4-0.4S183.6,90.8,183.6,91.1z M183.5,97.3c0,0.3-0.1,0.4-0.3,0.4
	c-0.3,0-0.4-0.1-0.4-0.4s0.1-0.4,0.4-0.4C183.4,97,183.5,97.1,183.5,97.3z M183.5,103.6c0,0.2-0.1,0.3-0.3,0.3s-0.3-0.1-0.3-0.3
	s0.1-0.3,0.3-0.3S183.5,103.4,183.5,103.6z M183.3,109.9c0,0.1,0,0.1-0.1,0.1s-0.1,0-0.1-0.1l0.1-0.1
	C183.3,109.8,183.3,109.8,183.3,109.9z M190.2,66c0,0.5-0.3,0.8-0.9,0.8c-0.5,0-0.8-0.3-0.8-0.8c0-0.6,0.3-0.9,0.8-0.9
	C189.9,65.1,190.2,65.4,190.2,66z M190,72.2c0,0.4-0.3,0.6-0.8,0.6c-0.4,0-0.6-0.2-0.6-0.6c0-0.5,0.2-0.8,0.6-0.8
	C189.8,71.5,190,71.7,190,72.2z M189.9,78.5c0,0.3-0.2,0.5-0.6,0.5c-0.3,0-0.5-0.2-0.5-0.5c0-0.4,0.2-0.6,0.5-0.6
	C189.7,77.9,189.9,78.1,189.9,78.5z M189.8,84.8c0,0.3-0.2,0.5-0.5,0.5s-0.5-0.2-0.5-0.5s0.2-0.5,0.5-0.5S189.8,84.4,189.8,84.8z
	 M189.8,91.1c0,0.3-0.2,0.4-0.5,0.4s-0.4-0.1-0.4-0.4s0.1-0.4,0.4-0.4C189.6,90.7,189.8,90.8,189.8,91.1z M189.7,97.3
	c0,0.3-0.1,0.4-0.4,0.4c-0.2,0-0.3-0.1-0.3-0.4s0.1-0.4,0.3-0.4C189.5,97,189.7,97.1,189.7,97.3z M189.5,103.6
	c0,0.2-0.1,0.3-0.3,0.3c-0.1,0-0.1-0.1-0.1-0.3s0-0.3,0.1-0.3C189.4,103.4,189.5,103.4,189.5,103.6z M189.5,109.9
	c0,0.1-0.1,0.1-0.3,0.1l-0.1-0.1l0.1-0.1C189.4,109.8,189.4,109.8,189.5,109.9z"/>
<linearGradient id="SVGID_00000045613981752430842710000014552437063649600438_" gradientUnits="userSpaceOnUse" x1="219.7" y1="8" x2="219.7" y2="84.1843" gradientTransform="matrix(1 0 0 -1 0 118)">
	<stop  offset="0" style="stop-color:#253F5D"/>
	<stop  offset="5.333543e-03" style="stop-color:#28425F"/>
	<stop  offset="8.410770e-02" style="stop-color:#53667D"/>
	<stop  offset="0.1683" style="stop-color:#788798"/>
	<stop  offset="0.2589" style="stop-color:#98A2AE"/>
	<stop  offset="0.3567" style="stop-color:#B1B8C0"/>
	<stop  offset="0.4645" style="stop-color:#C5CACF"/>
	<stop  offset="0.5873" style="stop-color:#D3D6D8"/>
	<stop  offset="0.7383" style="stop-color:#DCDDDE"/>
	<stop  offset="1" style="stop-color:#DEDFE0"/>
</linearGradient>
<path style="fill:url(#SVGID_00000045613981752430842710000014552437063649600438_);" d="M189.1,59.2l10.9-4.6v1.2l-10.5,4.4
	l-0.3,0.1c-0.3,0-0.4-0.1-0.4-0.4C188.6,59.4,188.7,59.2,189.1,59.2L189.1,59.2z M196.1,66c0,0.5-0.3,0.8-0.8,0.8s-0.8-0.3-0.8-0.8
	c0-0.6,0.3-0.9,0.8-0.9C195.9,65.1,196.1,65.4,196.1,66z M196,72.2c0,0.4-0.2,0.6-0.6,0.6c-0.4,0-0.6-0.2-0.6-0.6
	c0-0.5,0.2-0.8,0.6-0.8C195.8,71.5,196,71.7,196,72.2z M196,78.5c0,0.3-0.2,0.5-0.6,0.5c-0.4,0-0.6-0.2-0.6-0.5
	c0-0.4,0.2-0.6,0.6-0.6S196,78.1,196,78.5z M195.9,84.8c0,0.3-0.2,0.5-0.5,0.5s-0.5-0.2-0.5-0.5s0.2-0.5,0.5-0.5
	S195.9,84.4,195.9,84.8z M195.7,91.1c0,0.3-0.1,0.4-0.4,0.4c-0.3,0-0.4-0.1-0.4-0.4s0.1-0.4,0.4-0.4
	C195.6,90.7,195.7,90.8,195.7,91.1z M195.7,97.3c0,0.3-0.1,0.4-0.4,0.4c-0.3,0-0.4-0.1-0.4-0.4s0.1-0.4,0.4-0.4
	C195.6,97,195.7,97.1,195.7,97.3z M195.6,103.6c0,0.2-0.1,0.3-0.3,0.3s-0.3-0.1-0.3-0.3s0.1-0.3,0.3-0.3S195.6,103.4,195.6,103.6z
	 M195.5,109.9c0,0.1,0,0.1-0.1,0.1s-0.1,0-0.1-0.1l0.1-0.1C195.4,109.8,195.5,109.8,195.5,109.9z M201.4,110c-0.1,0-0.1,0-0.1-0.1
	l0.1-0.1l0.1,0.1C201.5,110,201.5,110,201.4,110z M249.8,34.9l-40.8,17v-1.2l17.4-7.2c-2.1-0.9-4.5-1.4-7.4-1.5l-13.3,0.1v35.2
	l14.9,0.1c4.7-1.2,8.4-3.5,10.9-7s3.7-7.5,3.7-12.2c0-4.8-1.3-8.6-3.9-11.4l2.7-1.2c2.6,3.2,3.9,7.4,3.9,12.4s-1.3,9.4-3.9,13.2
	c-2.6,3.8-6.4,6.5-11.4,8.1c2.8,4.6,5.7,8.8,8.7,12.6c2.9,3.8,6.3,7.6,10.2,11.7l0.1,0.5c-0.3,0.2-0.6,0.3-0.8,0.5s-0.5,0.3-0.8,0.5
	l-0.9-0.3c-4-3.8-7.4-7.8-10.3-11.9s-5.8-8.5-8.9-13.1h-14.1v24.6h-2.6V39.7l15.4-0.1c4.4,0,8.1,0.9,11.1,2.6l19.6-8.2
	c0.3-0.2,0.5-0.1,0.6,0.3C250.1,34.5,250,34.8,249.8,34.9L249.8,34.9z M207.5,109.9c0,0.1,0,0.1-0.1,0.1l-0.1-0.1l0.1-0.1
	C207.4,109.8,207.5,109.8,207.5,109.9z M214.3,53.3c0,0.7-0.3,1-0.9,1c-0.7,0-1-0.3-1-1c0-0.6,0.3-0.9,1-0.9
	C214,52.4,214.3,52.7,214.3,53.3z M214.3,59.5c0,0.6-0.3,0.9-0.9,0.9c-0.6,0-0.9-0.3-0.9-0.9c0-0.5,0.3-0.8,0.9-0.8
	C214,58.8,214.3,59,214.3,59.5z M214.2,66c0,0.5-0.3,0.8-0.8,0.8s-0.8-0.3-0.8-0.8c0-0.6,0.3-0.9,0.8-0.9
	C214,65.1,214.2,65.4,214.2,66z M214.1,72.2c0,0.4-0.2,0.6-0.6,0.6c-0.4,0-0.6-0.2-0.6-0.6c0-0.5,0.2-0.8,0.6-0.8
	C213.9,71.5,214.1,71.7,214.1,72.2z M214,84.8c0,0.3-0.2,0.5-0.5,0.5s-0.5-0.2-0.5-0.5s0.2-0.5,0.5-0.5S214,84.4,214,84.8z
	 M213.8,91.1c0,0.3-0.1,0.4-0.4,0.4c-0.3,0-0.4-0.1-0.4-0.4s0.1-0.4,0.4-0.4S213.8,90.8,213.8,91.1z M213.7,97.3
	c0,0.3-0.1,0.4-0.3,0.4c-0.3,0-0.4-0.1-0.4-0.4s0.1-0.4,0.4-0.4C213.6,97,213.7,97.1,213.7,97.3z M213.7,103.6
	c0,0.2-0.1,0.3-0.3,0.3s-0.3-0.1-0.3-0.3s0.1-0.3,0.3-0.3C213.6,103.4,213.7,103.4,213.7,103.6z M213.4,110c-0.1,0-0.1,0-0.1-0.1
	l0.1-0.1l0.1,0.1C213.6,110,213.5,110,213.4,110z M220.4,53.3c0,0.7-0.3,1-1,1c-0.6,0-0.9-0.3-0.9-1c0-0.6,0.3-0.9,0.9-0.9
	C220.1,52.4,220.4,52.7,220.4,53.3z M220.3,59.5c0,0.6-0.3,0.9-0.9,0.9c-0.5,0-0.8-0.3-0.8-0.9c0-0.5,0.3-0.8,0.8-0.8
	C220,58.8,220.3,59,220.3,59.5z M220.3,66c0,0.5-0.3,0.8-0.9,0.8c-0.5,0-0.8-0.3-0.8-0.8c0-0.6,0.3-0.9,0.8-0.9
	C220,65.1,220.3,65.4,220.3,66z M220.2,72.2c0,0.4-0.3,0.6-0.8,0.6c-0.4,0-0.6-0.2-0.6-0.6c0-0.5,0.2-0.8,0.6-0.8
	C219.9,71.5,220.2,71.7,220.2,72.2z M219.9,91.1c0,0.3-0.2,0.4-0.5,0.4s-0.4-0.1-0.4-0.4s0.1-0.4,0.4-0.4
	C219.7,90.7,219.9,90.8,219.9,91.1z M219.8,97.3c0,0.3-0.1,0.4-0.4,0.4c-0.2,0-0.3-0.1-0.3-0.4s0.1-0.4,0.3-0.4
	C219.6,97,219.8,97.1,219.8,97.3z M219.6,103.6c0,0.2-0.1,0.3-0.3,0.3c-0.1,0-0.1-0.1-0.1-0.3s0-0.3,0.1-0.3
	C219.6,103.4,219.6,103.4,219.6,103.6z M219.6,109.9c0,0.1-0.1,0.1-0.3,0.1l-0.1-0.1l0.1-0.1C219.5,109.8,219.6,109.8,219.6,109.9z
	 M226.5,53.3c0,0.7-0.3,1-1,1c-0.6,0-0.9-0.3-0.9-1c0-0.6,0.3-0.9,0.9-0.9C226.1,52.4,226.5,52.7,226.5,53.3z M226.4,59.5
	c0,0.6-0.3,0.9-0.9,0.9c-0.6,0-0.9-0.3-0.9-0.9c0-0.5,0.3-0.8,0.9-0.8C226.1,58.8,226.4,59,226.4,59.5z M226.2,66
	c0,0.5-0.3,0.8-0.8,0.8s-0.8-0.3-0.8-0.8c0-0.6,0.3-0.9,0.8-0.9C226,65.1,226.2,65.4,226.2,66z M225.8,97.3c0,0.3-0.1,0.4-0.4,0.4
	c-0.3,0-0.4-0.1-0.4-0.4s0.1-0.4,0.4-0.4C225.7,97,225.8,97.1,225.8,97.3z M225.7,103.6c0,0.2-0.1,0.3-0.3,0.3s-0.3-0.1-0.3-0.3
	s0.1-0.3,0.3-0.3C225.6,103.4,225.7,103.4,225.7,103.6z M225.6,109.9c0,0.1,0,0.1-0.1,0.1s-0.1,0-0.1-0.1l0.1-0.1
	C225.5,109.8,225.6,109.8,225.6,109.9z M232,84.8c0,0.3-0.2,0.5-0.5,0.5s-0.5-0.2-0.5-0.5s0.2-0.5,0.5-0.5S232,84.4,232,84.8z
	 M231.7,103.6c0,0.2,0,0.3-0.1,0.3c-0.2,0-0.3-0.1-0.3-0.3s0.1-0.3,0.3-0.3C231.6,103.4,231.7,103.4,231.7,103.6z M231.5,110
	c-0.1,0-0.1,0-0.1-0.1l0.1-0.1l0.1,0.1C231.7,110,231.6,110,231.5,110z M238.1,78.5c0,0.3-0.2,0.5-0.6,0.5c-0.3,0-0.5-0.2-0.5-0.5
	c0-0.4,0.2-0.6,0.5-0.6C237.9,77.9,238.1,78.1,238.1,78.5z M238,84.8c0,0.3-0.2,0.5-0.5,0.5s-0.5-0.2-0.5-0.5s0.2-0.5,0.5-0.5
	S238,84.4,238,84.8z M238,91.1c0,0.3-0.2,0.4-0.5,0.4s-0.4-0.1-0.4-0.4s0.1-0.4,0.4-0.4C237.8,90.7,238,90.8,238,91.1z M237.6,109.9
	c0,0.1,0,0.1-0.1,0.1l-0.1-0.1l0.1-0.1C237.6,109.8,237.6,109.8,237.6,109.9z M244.7,40.7c0,0.8-0.4,1.2-1.2,1.2s-1.2-0.4-1.2-1.2
	s0.4-1.2,1.2-1.2S244.7,39.9,244.7,40.7z M244.6,47c0,0.8-0.3,1.2-1,1.2s-1-0.4-1-1.2c0-0.7,0.3-1,1-1C244.2,46,244.6,46.3,244.6,47
	z M244.5,53.3c0,0.7-0.3,1-0.9,1c-0.7,0-1-0.3-1-1c0-0.6,0.3-0.9,1-0.9C244.2,52.4,244.5,52.7,244.5,53.3z M244.5,59.5
	c0,0.6-0.3,0.9-0.9,0.9c-0.6,0-0.9-0.3-0.9-0.9c0-0.5,0.3-0.8,0.9-0.8C244.2,58.8,244.5,59,244.5,59.5z M244.3,66
	c0,0.5-0.3,0.8-0.8,0.8s-0.8-0.3-0.8-0.8c0-0.6,0.3-0.9,0.8-0.9C244.1,65.1,244.3,65.4,244.3,66z M244.2,72.2c0,0.4-0.2,0.6-0.6,0.6
	c-0.4,0-0.6-0.2-0.6-0.6c0-0.5,0.2-0.8,0.6-0.8C244,71.5,244.2,71.7,244.2,72.2z M244.2,78.5c0,0.3-0.2,0.5-0.6,0.5
	c-0.4,0-0.6-0.2-0.6-0.5c0-0.4,0.2-0.6,0.6-0.6S244.2,78.1,244.2,78.5z M244.1,84.8c0,0.3-0.2,0.5-0.5,0.5s-0.5-0.2-0.5-0.5
	s0.2-0.5,0.5-0.5S244.1,84.4,244.1,84.8z M243.9,91.1c0,0.3-0.1,0.4-0.4,0.4c-0.3,0-0.4-0.1-0.4-0.4s0.1-0.4,0.4-0.4
	C243.8,90.7,243.9,90.8,243.9,91.1z M243.8,97.3c0,0.3-0.1,0.4-0.3,0.4c-0.3,0-0.4-0.1-0.4-0.4s0.1-0.4,0.4-0.4
	C243.7,97,243.8,97.1,243.8,97.3z M243.5,110c-0.1,0-0.1,0-0.1-0.1l0.1-0.1l0.1,0.1C243.7,110,243.6,110,243.5,110z M250.7,40.7
	c0,0.8-0.4,1.2-1.2,1.2c-0.3,0-0.5-0.1-0.8-0.3s-0.4-0.5-0.4-0.8s0.1-0.6,0.4-0.8s0.5-0.3,0.8-0.3C250.3,39.6,250.7,39.9,250.7,40.7
	z M250.7,47c0,0.8-0.4,1.2-1.2,1.2c-0.7,0-1-0.4-1-1.2c0-0.7,0.3-1,1-1C250.3,46,250.7,46.3,250.7,47z M250.5,53.3c0,0.7-0.3,1-1,1
	c-0.6,0-0.9-0.3-0.9-1c0-0.6,0.3-0.9,0.9-0.9C250.2,52.4,250.5,52.7,250.5,53.3z M250.4,59.5c0,0.6-0.3,0.9-0.9,0.9
	c-0.5,0-0.8-0.3-0.8-0.9c0-0.5,0.3-0.8,0.8-0.8C250.1,58.8,250.4,59,250.4,59.5z M250.4,66c0,0.5-0.3,0.8-0.9,0.8
	c-0.5,0-0.8-0.3-0.8-0.8c0-0.6,0.3-0.9,0.8-0.9C250.1,65.1,250.4,65.4,250.4,66z M250.3,72.2c0,0.4-0.3,0.6-0.8,0.6
	c-0.4,0-0.6-0.2-0.6-0.6c0-0.5,0.2-0.8,0.6-0.8C250,71.5,250.3,71.7,250.3,72.2z M250.1,78.5c0,0.3-0.2,0.5-0.6,0.5
	c-0.3,0-0.5-0.2-0.5-0.5c0-0.4,0.2-0.6,0.5-0.6C249.9,77.9,250.1,78.1,250.1,78.5z M250,84.8c0,0.3-0.2,0.5-0.5,0.5
	s-0.5-0.2-0.5-0.5s0.2-0.5,0.5-0.5S250,84.4,250,84.8z M250,91.1c0,0.3-0.2,0.4-0.5,0.4s-0.4-0.1-0.4-0.4s0.1-0.4,0.4-0.4
	C249.8,90.7,250,90.8,250,91.1z M249.9,97.3c0,0.3-0.1,0.4-0.4,0.4c-0.2,0-0.3-0.1-0.3-0.4s0.1-0.4,0.3-0.4
	C249.8,97,249.9,97.1,249.9,97.3z M249.8,103.6c0,0.2-0.1,0.3-0.3,0.3c-0.1,0-0.1-0.1-0.1-0.3s0-0.3,0.1-0.3
	C249.7,103.4,249.8,103.4,249.8,103.6z M249.8,109.9c0,0.1-0.1,0.1-0.3,0.1l-0.1-0.1l0.1-0.1C249.6,109.8,249.7,109.8,249.8,109.9z"
	/>
<linearGradient id="SVGID_00000073711048898334178040000016803330266956692118_" gradientUnits="userSpaceOnUse" x1="249.4375" y1="91.4" x2="249.4375" y2="116.4" gradientTransform="matrix(1 0 0 -1 0 118)">
	<stop  offset="0" style="stop-color:#253F5D"/>
	<stop  offset="5.333543e-03" style="stop-color:#28425F"/>
	<stop  offset="8.410770e-02" style="stop-color:#53667D"/>
	<stop  offset="0.1683" style="stop-color:#788798"/>
	<stop  offset="0.2589" style="stop-color:#98A2AE"/>
	<stop  offset="0.3567" style="stop-color:#B1B8C0"/>
	<stop  offset="0.4645" style="stop-color:#C5CACF"/>
	<stop  offset="0.5873" style="stop-color:#D3D6D8"/>
	<stop  offset="0.7383" style="stop-color:#DCDDDE"/>
	<stop  offset="1" style="stop-color:#DEDFE0"/>
</linearGradient>
<path style="fill:url(#SVGID_00000073711048898334178040000016803330266956692118_);" d="M262,14.2c0,0.2,0,0.3-0.1,0.4l-12,11.9
	c-0.1,0.1-0.2,0.1-0.4,0.1s-0.3,0-0.4-0.1l-12-11.9c-0.3-0.3-0.3-0.6,0-0.8l12-11.9c0.2-0.2,0.3-0.3,0.4-0.3s0.2,0.1,0.4,0.3
	l12,11.9C262,13.9,262,14,262,14.2L262,14.2z M249.5,3l-11.2,11.1l11.2,11.1l11.2-11.1L249.5,3L249.5,3z M249.5,8.7l5.6,5.3
	l-0.6,0.8l-4.4-4.1v9.2h-1v-9.2l-4.4,4.1l-0.6-0.8C243.9,13.9,249.5,8.7,249.5,8.7z"/>
<linearGradient id="SVGID_00000047045801676971990580000011711679921900599696_" gradientUnits="userSpaceOnUse" x1="285.5312" y1="8" x2="285.5312" y2="84.1785" gradientTransform="matrix(1 0 0 -1 0 118)">
	<stop  offset="0" style="stop-color:#253F5D"/>
	<stop  offset="5.333543e-03" style="stop-color:#28425F"/>
	<stop  offset="8.410770e-02" style="stop-color:#53667D"/>
	<stop  offset="0.1683" style="stop-color:#788798"/>
	<stop  offset="0.2589" style="stop-color:#98A2AE"/>
	<stop  offset="0.3567" style="stop-color:#B1B8C0"/>
	<stop  offset="0.4645" style="stop-color:#C5CACF"/>
	<stop  offset="0.5873" style="stop-color:#D3D6D8"/>
	<stop  offset="0.7383" style="stop-color:#DCDDDE"/>
	<stop  offset="1" style="stop-color:#DEDFE0"/>
</linearGradient>
<path style="fill:url(#SVGID_00000047045801676971990580000011711679921900599696_);" d="M306.4,47.4c4.7,5.5,7.1,13.3,7.1,23.5
	c0,11-2.5,19.5-7.4,25.3c-5,5.9-12.1,8.8-21.4,8.8c-8.9,0-15.7-2.8-20.5-8.5c-4.8-5.6-7.2-13.7-7.2-24.2c0-12.4,3.3-21.4,10-27l3,1
	c-3.3,2.5-5.8,5.9-7.6,10.2c-1.8,4.3-2.6,9.5-2.6,15.7c0,9.8,2.1,17.3,6.4,22.5c4.3,5.2,10.4,7.8,18.5,7.8c8.4,0,14.9-2.7,19.5-8.1
	s6.8-13.2,6.8-23.3c0-9.6-2.2-16.8-6.5-21.8s-10.6-7.5-18.7-7.5c-1.7,0-3.4,0.1-5,0.3s-3.1,0.6-4.6,1.1l26.8,9.4l1,1.5l-54.5-19.2
	c-0.3-0.2-0.4-0.4-0.3-0.6c0-0.4,0.2-0.6,0.6-0.4l22.6,7.9c3.9-1.8,8.4-2.7,13.4-2.7C294.8,39.2,301.6,41.9,306.4,47.4L306.4,47.4z
	 M257.1,47c0,0.8-0.3,1.2-1,1.2c-0.8,0-1.2-0.4-1.2-1.2c0-0.7,0.4-1,1.2-1C256.8,46,257.1,46.3,257.1,47z M256.5,91.1
	c0,0.3-0.1,0.4-0.4,0.4c-0.3,0-0.5-0.1-0.5-0.4s0.2-0.4,0.5-0.4C256.3,90.7,256.5,90.8,256.5,91.1z M256.3,97.3
	c0,0.3-0.1,0.4-0.3,0.4c-0.3,0-0.4-0.1-0.4-0.4s0.1-0.4,0.4-0.4C256.3,97,256.3,97.1,256.3,97.3z M256.2,103.6c0,0.2,0,0.3-0.1,0.3
	c-0.2,0-0.3-0.1-0.3-0.3s0.1-0.3,0.3-0.3C256.2,103.4,256.2,103.4,256.2,103.6z M256.1,110c-0.1,0-0.1,0-0.1-0.1l0.1-0.1l0.1,0.1
	C256.2,110,256.2,110,256.1,110z M262.8,103.6c0,0.2-0.1,0.3-0.3,0.3c-0.2,0-0.3-0.1-0.3-0.3s0.1-0.3,0.3-0.3
	C262.7,103.4,262.8,103.4,262.8,103.6z M262.7,109.9c0,0.1,0,0.1-0.1,0.1s-0.1,0-0.1-0.1l0.1-0.1
	C262.6,109.8,262.7,109.8,262.7,109.9z M269.9,59.5c0,0.6-0.3,0.9-0.9,0.9c-0.5,0-0.8-0.3-0.8-0.9c0-0.5,0.3-0.8,0.8-0.8
	C269.6,58.8,269.9,59,269.9,59.5z M269.8,66c0,0.5-0.3,0.8-0.8,0.8s-0.8-0.3-0.8-0.8c0-0.6,0.3-0.9,0.8-0.9S269.8,65.4,269.8,66z
	 M269.8,72.2c0,0.4-0.3,0.6-0.8,0.6c-0.4,0-0.6-0.2-0.6-0.6c0-0.5,0.2-0.8,0.6-0.8C269.5,71.5,269.8,71.7,269.8,72.2z M269.7,78.5
	c0,0.3-0.2,0.5-0.6,0.5c-0.3,0-0.5-0.2-0.5-0.5c0-0.4,0.2-0.6,0.5-0.6S269.7,78.1,269.7,78.5z M269.5,84.8c0,0.3-0.2,0.5-0.5,0.5
	s-0.5-0.2-0.5-0.5s0.2-0.5,0.5-0.5S269.5,84.4,269.5,84.8z M269.5,91.1c0,0.3-0.2,0.4-0.5,0.4s-0.4-0.1-0.4-0.4s0.1-0.4,0.4-0.4
	C269.4,90.7,269.5,90.8,269.5,91.1z M269.1,109.9c0,0.1,0,0.1-0.1,0.1l-0.1-0.1l0.1-0.1C269.1,109.8,269.1,109.8,269.1,109.9z
	 M276.5,53.3c0,0.7-0.3,1-0.9,1c-0.7,0-1-0.3-1-1c0-0.6,0.3-0.9,1-0.9C276.2,52.4,276.5,52.7,276.5,53.3z M276.4,59.5
	c0,0.6-0.3,0.9-0.8,0.9c-0.6,0-0.9-0.3-0.9-0.9c0-0.5,0.3-0.8,0.9-0.8C276.1,58.8,276.4,59,276.4,59.5z M276.4,66
	c0,0.5-0.3,0.8-0.8,0.8c-0.6,0-0.9-0.3-0.9-0.8c0-0.6,0.3-0.9,0.9-0.9C276.1,65.1,276.4,65.4,276.4,66z M276.2,72.2
	c0,0.4-0.2,0.6-0.6,0.6c-0.5,0-0.8-0.2-0.8-0.6c0-0.5,0.3-0.8,0.8-0.8C276,71.5,276.2,71.7,276.2,72.2z M276.1,78.5
	c0,0.3-0.2,0.5-0.5,0.5c-0.4,0-0.6-0.2-0.6-0.5c0-0.4,0.2-0.6,0.6-0.6C275.9,77.9,276.1,78.1,276.1,78.5z M276.1,84.8
	c0,0.3-0.2,0.5-0.5,0.5s-0.5-0.2-0.5-0.5s0.2-0.5,0.5-0.5S276.1,84.4,276.1,84.8z M276,91.1c0,0.3-0.1,0.4-0.4,0.4s-0.5-0.1-0.5-0.4
	s0.2-0.4,0.5-0.4S276,90.8,276,91.1z M275.9,97.3c0,0.3-0.1,0.4-0.3,0.4c-0.3,0-0.4-0.1-0.4-0.4s0.1-0.4,0.4-0.4
	C275.8,97,275.9,97.1,275.9,97.3z M275.6,110c-0.2,0-0.3,0-0.3-0.1l0.3-0.1l0.1,0.1C275.7,110,275.7,110,275.6,110z M283,53.3
	c0,0.7-0.3,1-0.9,1c-0.7,0-1-0.3-1-1c0-0.6,0.3-0.9,1-0.9C282.7,52.4,283,52.7,283,53.3z M283,59.5c0,0.6-0.3,0.9-0.9,0.9
	s-0.9-0.3-0.9-0.9c0-0.5,0.3-0.8,0.9-0.8C282.7,58.8,283,59,283,59.5z M282.8,66c0,0.5-0.3,0.8-0.8,0.8s-0.8-0.3-0.8-0.8
	c0-0.6,0.3-0.9,0.8-0.9C282.6,65.1,282.8,65.4,282.8,66z M282.7,72.2c0,0.4-0.2,0.6-0.6,0.6c-0.5,0-0.8-0.2-0.8-0.6
	c0-0.5,0.3-0.8,0.8-0.8C282.5,71.5,282.7,71.7,282.7,72.2z M282.7,78.5c0,0.3-0.2,0.5-0.6,0.5s-0.6-0.2-0.6-0.5
	c0-0.4,0.2-0.6,0.6-0.6S282.7,78.1,282.7,78.5z M282.6,84.8c0,0.3-0.2,0.5-0.5,0.5s-0.5-0.2-0.5-0.5s0.2-0.5,0.5-0.5
	S282.6,84.4,282.6,84.8z M282.5,91.1c0,0.3-0.1,0.4-0.4,0.4s-0.4-0.1-0.4-0.4s0.1-0.4,0.4-0.4C282.3,90.7,282.5,90.8,282.5,91.1z
	 M282.3,97.3c0,0.3-0.1,0.4-0.3,0.4c-0.3,0-0.4-0.1-0.4-0.4s0.1-0.4,0.4-0.4C282.2,97,282.3,97.1,282.3,97.3z M282.1,110
	c-0.1,0-0.1,0-0.1-0.1l0.1-0.1l0.1,0.1C282.2,110,282.1,110,282.1,110z M289.6,53.3c0,0.7-0.3,1-1,1c-0.6,0-0.9-0.3-0.9-1
	c0-0.6,0.3-0.9,0.9-0.9C289.2,52.4,289.6,52.7,289.6,53.3z M289.4,59.5c0,0.6-0.3,0.9-0.9,0.9s-0.9-0.3-0.9-0.9
	c0-0.5,0.3-0.8,0.9-0.8C289.1,58.8,289.4,59,289.4,59.5z M289.3,66c0,0.5-0.3,0.8-0.8,0.8s-0.8-0.3-0.8-0.8c0-0.6,0.3-0.9,0.8-0.9
	S289.3,65.4,289.3,66z M289.2,72.2c0,0.4-0.2,0.6-0.6,0.6s-0.6-0.2-0.6-0.6c0-0.5,0.2-0.8,0.6-0.8S289.2,71.7,289.2,72.2z
	 M289.2,78.5c0,0.3-0.2,0.5-0.6,0.5s-0.6-0.2-0.6-0.5c0-0.4,0.2-0.6,0.6-0.6S289.2,78.1,289.2,78.5z M289,84.8
	c0,0.3-0.2,0.5-0.5,0.5s-0.5-0.2-0.5-0.5s0.2-0.5,0.5-0.5S289,84.4,289,84.8z M288.9,91.1c0,0.3-0.1,0.4-0.4,0.4s-0.4-0.1-0.4-0.4
	s0.1-0.4,0.4-0.4S288.9,90.8,288.9,91.1z M288.9,97.3c0,0.3-0.1,0.4-0.4,0.4c-0.2,0-0.3-0.1-0.3-0.4s0.1-0.4,0.3-0.4
	C288.8,97,288.9,97.1,288.9,97.3z M288.7,109.9c0,0.1,0,0.1-0.1,0.1s-0.1,0-0.1-0.1l0.1-0.1C288.6,109.8,288.7,109.8,288.7,109.9z
	 M295.9,59.5c0,0.6-0.3,0.9-0.9,0.9c-0.5,0-0.8-0.3-0.8-0.9c0-0.5,0.3-0.8,0.8-0.8C295.6,58.8,295.9,59,295.9,59.5z M295.9,66
	c0,0.5-0.3,0.8-0.9,0.8c-0.5,0-0.8-0.3-0.8-0.8c0-0.6,0.3-0.9,0.8-0.9C295.6,65.1,295.9,65.4,295.9,66z M295.8,72.2
	c0,0.4-0.3,0.6-0.8,0.6c-0.4,0-0.6-0.2-0.6-0.6c0-0.5,0.2-0.8,0.6-0.8C295.5,71.5,295.8,71.7,295.8,72.2z M295.6,78.5
	c0,0.3-0.2,0.5-0.6,0.5c-0.3,0-0.5-0.2-0.5-0.5c0-0.4,0.2-0.6,0.5-0.6C295.4,77.9,295.6,78.1,295.6,78.5z M295.5,84.8
	c0,0.3-0.2,0.5-0.5,0.5s-0.5-0.2-0.5-0.5s0.2-0.5,0.5-0.5S295.5,84.4,295.5,84.8z M295.5,91.1c0,0.3-0.2,0.4-0.5,0.4
	s-0.4-0.1-0.4-0.4s0.1-0.4,0.4-0.4S295.5,90.8,295.5,91.1z M295.4,97.3c0,0.3-0.1,0.4-0.4,0.4c-0.2,0-0.3-0.1-0.3-0.4
	s0.1-0.4,0.3-0.4C295.2,97,295.4,97.1,295.4,97.3z M295.1,109.9c0,0.1,0,0.1-0.1,0.1l-0.1-0.1l0.1-0.1
	C295.1,109.8,295.1,109.8,295.1,109.9z M302.4,59.5c0,0.6-0.3,0.9-0.8,0.9c-0.6,0-0.9-0.3-0.9-0.9c0-0.5,0.3-0.8,0.9-0.8
	C302.1,58.8,302.4,59,302.4,59.5z M302.4,66c0,0.5-0.3,0.8-0.8,0.8c-0.6,0-0.9-0.3-0.9-0.8c0-0.6,0.3-0.9,0.9-0.9
	C302.1,65.1,302.4,65.4,302.4,66z M302.2,72.2c0,0.4-0.2,0.6-0.6,0.6c-0.5,0-0.8-0.2-0.8-0.6c0-0.5,0.3-0.8,0.8-0.8
	C302,71.5,302.2,71.7,302.2,72.2z M302.1,78.5c0,0.3-0.2,0.5-0.5,0.5c-0.4,0-0.6-0.2-0.6-0.5c0-0.4,0.2-0.6,0.6-0.6
	C301.9,77.9,302.1,78.1,302.1,78.5z M302.1,84.8c0,0.3-0.2,0.5-0.5,0.5s-0.5-0.2-0.5-0.5s0.2-0.5,0.5-0.5S302.1,84.4,302.1,84.8z
	 M302,91.1c0,0.3-0.1,0.4-0.4,0.4s-0.5-0.1-0.5-0.4s0.2-0.4,0.5-0.4C301.8,90.7,302,90.8,302,91.1z M301.6,110c-0.1,0-0.1,0-0.1-0.1
	l0.1-0.1l0.1,0.1C301.7,110,301.7,110,301.6,110z M308.3,103.6c0,0.2-0.1,0.3-0.3,0.3c-0.2,0-0.3-0.1-0.3-0.3s0.1-0.3,0.3-0.3
	C308.2,103.4,308.3,103.4,308.3,103.6z M308.2,109.9c0,0.1,0,0.1-0.1,0.1s-0.1,0-0.1-0.1l0.1-0.1
	C308.1,109.8,308.2,109.8,308.2,109.9z M314.9,91.1c0,0.3-0.1,0.4-0.4,0.4s-0.4-0.1-0.4-0.4s0.1-0.4,0.4-0.4S314.9,90.8,314.9,91.1z
	 M314.9,97.3c0,0.3-0.1,0.4-0.4,0.4c-0.2,0-0.3-0.1-0.3-0.4s0.1-0.4,0.3-0.4C314.8,97,314.9,97.1,314.9,97.3z M314.8,103.6
	c0,0.2-0.1,0.3-0.3,0.3c-0.2,0-0.3-0.1-0.3-0.3s0.1-0.3,0.3-0.3C314.7,103.4,314.8,103.4,314.8,103.6z M314.6,109.9
	c0,0.1,0,0.1-0.1,0.1l-0.1-0.1l0.1-0.1C314.6,109.8,314.6,109.8,314.6,109.9z M321.5,59.8c0,0.3-0.2,0.4-0.5,0.4l-0.1-0.1l-5.6-1.9
	l-0.4-1.3l6.3,2.2C321.6,59.2,321.7,59.5,321.5,59.8L321.5,59.8z M321.9,66c0,0.5-0.3,0.8-0.9,0.8c-0.5,0-0.8-0.3-0.8-0.8
	c0-0.6,0.3-0.9,0.8-0.9C321.6,65.1,321.9,65.4,321.9,66z M321.7,72.2c0,0.4-0.3,0.6-0.8,0.6c-0.4,0-0.6-0.2-0.6-0.6
	c0-0.5,0.2-0.8,0.6-0.8C321.5,71.5,321.7,71.7,321.7,72.2z M321.6,78.5c0,0.3-0.2,0.5-0.6,0.5c-0.3,0-0.5-0.2-0.5-0.5
	c0-0.4,0.2-0.6,0.5-0.6C321.4,77.9,321.6,78.1,321.6,78.5z M321.5,84.8c0,0.3-0.2,0.5-0.5,0.5s-0.5-0.2-0.5-0.5s0.2-0.5,0.5-0.5
	S321.5,84.4,321.5,84.8z M321.5,91.1c0,0.3-0.2,0.4-0.5,0.4s-0.4-0.1-0.4-0.4s0.1-0.4,0.4-0.4S321.5,90.8,321.5,91.1z M321.4,97.3
	c0,0.3-0.1,0.4-0.4,0.4c-0.2,0-0.3-0.1-0.3-0.4s0.1-0.4,0.3-0.4C321.2,97,321.4,97.1,321.4,97.3z M321.2,103.6
	c0,0.2-0.1,0.3-0.3,0.3c-0.1,0-0.1-0.1-0.1-0.3s0-0.3,0.1-0.3C321.1,103.4,321.2,103.4,321.2,103.6z M321.2,109.9
	c0,0.1-0.1,0.1-0.3,0.1l-0.1-0.1l0.1-0.1C321.1,109.8,321.1,109.8,321.2,109.9z"/>
<linearGradient id="SVGID_00000018936878582388577870000002823200227149385406_" gradientUnits="userSpaceOnUse" x1="358.9778" y1="8" x2="358.9778" y2="78.5" gradientTransform="matrix(1 0 0 -1 0 118)">
	<stop  offset="0" style="stop-color:#253F5D"/>
	<stop  offset="5.333543e-03" style="stop-color:#28425F"/>
	<stop  offset="8.410770e-02" style="stop-color:#53667D"/>
	<stop  offset="0.1683" style="stop-color:#788798"/>
	<stop  offset="0.2589" style="stop-color:#98A2AE"/>
	<stop  offset="0.3567" style="stop-color:#B1B8C0"/>
	<stop  offset="0.4645" style="stop-color:#C5CACF"/>
	<stop  offset="0.5873" style="stop-color:#D3D6D8"/>
	<stop  offset="0.7383" style="stop-color:#DCDDDE"/>
	<stop  offset="1" style="stop-color:#DEDFE0"/>
</linearGradient>
<path style="fill:url(#SVGID_00000018936878582388577870000002823200227149385406_);" d="M321.2,59l10.6,3.6v1.2l-11-3.7
	c-0.4,0-0.5-0.2-0.3-0.6C320.6,59.2,320.8,59,321.2,59z M328.2,66c0,0.5-0.3,0.8-0.9,0.8c-0.5,0-0.8-0.3-0.8-0.8
	c0-0.6,0.3-0.9,0.8-0.9C327.9,65.1,328.2,65.4,328.2,66z M328.1,72.2c0,0.4-0.3,0.6-0.8,0.6c-0.4,0-0.6-0.2-0.6-0.6
	c0-0.5,0.2-0.8,0.6-0.8C327.8,71.5,328.1,71.7,328.1,72.2z M327.9,78.5c0,0.3-0.2,0.5-0.6,0.5c-0.3,0-0.5-0.2-0.5-0.5
	c0-0.4,0.2-0.6,0.5-0.6C327.7,77.9,327.9,78.1,327.9,78.5z M327.8,84.8c0,0.3-0.2,0.5-0.5,0.5s-0.5-0.2-0.5-0.5s0.2-0.5,0.5-0.5
	S327.8,84.4,327.8,84.8z M327.8,91.1c0,0.3-0.2,0.4-0.5,0.4s-0.4-0.1-0.4-0.4s0.1-0.4,0.4-0.4C327.6,90.7,327.8,90.8,327.8,91.1z
	 M327.7,97.3c0,0.3-0.1,0.4-0.4,0.4c-0.2,0-0.3-0.1-0.3-0.4s0.1-0.4,0.3-0.4C327.6,97,327.7,97.1,327.7,97.3z M327.6,103.6
	c0,0.2-0.1,0.3-0.3,0.3c-0.1,0-0.1-0.1-0.1-0.3s0-0.3,0.1-0.3C327.5,103.4,327.6,103.4,327.6,103.6z M327.6,109.9
	c0,0.1-0.1,0.1-0.3,0.1l-0.1-0.1l0.1-0.1C327.4,109.8,327.5,109.8,327.6,109.9z M333.9,109.9c0,0.1-0.1,0.1-0.3,0.1l-0.1-0.1
	l0.1-0.1C333.7,109.8,333.8,109.8,333.9,109.9z M397.5,84.9c0,0.3-0.2,0.4-0.5,0.4h-0.1l-56-18.6v-1.2l15.4,5.1L338,45.1h-0.4
	l-0.1,39.1v20.4h-2.6V85.3l0.1-45.6h2.6l23,32.4l19.8,6.5V39.8l2.6-0.3v40l14.2,4.7C397.6,84.4,397.6,84.7,397.5,84.9L397.5,84.9z
	 M340.2,109.9c0,0.1-0.1,0.1-0.3,0.1l-0.1-0.1l0.1-0.1C340,109.8,340.1,109.8,340.2,109.9z M347.1,72.2c0,0.4-0.3,0.6-0.8,0.6
	c-0.4,0-0.6-0.2-0.6-0.6c0-0.5,0.2-0.8,0.6-0.8C346.8,71.5,347.1,71.7,347.1,72.2z M346.9,78.5c0,0.3-0.2,0.5-0.6,0.5
	c-0.3,0-0.5-0.2-0.5-0.5c0-0.4,0.2-0.6,0.5-0.6C346.7,77.9,346.9,78.1,346.9,78.5z M346.8,84.8c0,0.3-0.2,0.5-0.5,0.5
	s-0.5-0.2-0.5-0.5s0.2-0.5,0.5-0.5S346.8,84.4,346.8,84.8z M346.8,91.1c0,0.3-0.2,0.4-0.5,0.4s-0.4-0.1-0.4-0.4s0.1-0.4,0.4-0.4
	C346.6,90.7,346.8,90.8,346.8,91.1z M346.7,97.3c0,0.3-0.1,0.4-0.4,0.4c-0.2,0-0.3-0.1-0.3-0.4s0.1-0.4,0.3-0.4
	C346.6,97,346.7,97.1,346.7,97.3z M346.6,103.6c0,0.2-0.1,0.3-0.3,0.3c-0.1,0-0.1-0.1-0.1-0.3s0-0.3,0.1-0.3
	C346.5,103.4,346.6,103.4,346.6,103.6z M346.6,109.9c0,0.1-0.1,0.1-0.3,0.1l-0.1-0.1l0.1-0.1C346.4,109.8,346.5,109.8,346.6,109.9z
	 M353.3,78.5c0,0.3-0.2,0.5-0.6,0.5c-0.3,0-0.5-0.2-0.5-0.5c0-0.4,0.2-0.6,0.5-0.6C353.1,77.9,353.3,78.1,353.3,78.5z M353.1,84.8
	c0,0.3-0.2,0.5-0.5,0.5s-0.5-0.2-0.5-0.5s0.2-0.5,0.5-0.5S353.1,84.4,353.1,84.8z M353.1,91.1c0,0.3-0.2,0.4-0.5,0.4
	s-0.4-0.1-0.4-0.4s0.1-0.4,0.4-0.4C353,90.7,353.1,90.8,353.1,91.1z M353,97.3c0,0.3-0.1,0.4-0.4,0.4c-0.2,0-0.3-0.1-0.3-0.4
	s0.1-0.4,0.3-0.4C352.9,97,353,97.1,353,97.3z M352.9,103.6c0,0.2-0.1,0.3-0.3,0.3c-0.1,0-0.1-0.1-0.1-0.3s0-0.3,0.1-0.3
	C352.8,103.4,352.9,103.4,352.9,103.6z M352.9,109.9c0,0.1-0.1,0.1-0.3,0.1l-0.1-0.1l0.1-0.1C352.7,109.8,352.8,109.8,352.9,109.9z
	 M359.5,84.8c0,0.3-0.2,0.5-0.5,0.5s-0.5-0.2-0.5-0.5s0.2-0.5,0.5-0.5S359.5,84.4,359.5,84.8z M359.5,91.1c0,0.3-0.2,0.4-0.5,0.4
	s-0.4-0.1-0.4-0.4s0.1-0.4,0.4-0.4S359.5,90.8,359.5,91.1z M359.3,97.3c0,0.3-0.1,0.4-0.4,0.4c-0.2,0-0.3-0.1-0.3-0.4
	s0.1-0.4,0.3-0.4C359.2,97,359.3,97.1,359.3,97.3z M359.2,103.6c0,0.2-0.1,0.3-0.3,0.3c-0.1,0-0.1-0.1-0.1-0.3s0-0.3,0.1-0.3
	C359.1,103.4,359.2,103.4,359.2,103.6z M359.2,109.9c0,0.1-0.1,0.1-0.3,0.1l-0.1-0.1l0.1-0.1C359,109.8,359.1,109.8,359.2,109.9z
	 M382.9,84.8v1.7l-0.1,18.1h-2.6l-19-26.9l4.4,1.4l14.2,20.2h0.5l0.1-15.2L382.9,84.8L382.9,84.8z M365.8,91.1
	c0,0.3-0.2,0.4-0.5,0.4s-0.4-0.1-0.4-0.4s0.1-0.4,0.4-0.4C365.6,90.7,365.8,90.8,365.8,91.1z M365.7,97.3c0,0.3-0.1,0.4-0.4,0.4
	c-0.2,0-0.3-0.1-0.3-0.4s0.1-0.4,0.3-0.4C365.6,97,365.7,97.1,365.7,97.3z M365.6,103.6c0,0.2-0.1,0.3-0.3,0.3
	c-0.1,0-0.1-0.1-0.1-0.3s0-0.3,0.1-0.3C365.5,103.4,365.6,103.4,365.6,103.6z M365.6,109.9c0,0.1-0.1,0.1-0.3,0.1l-0.1-0.1l0.1-0.1
	C365.4,109.8,365.5,109.8,365.6,109.9z M371.9,103.6c0,0.2-0.1,0.3-0.3,0.3c-0.1,0-0.1-0.1-0.1-0.3s0-0.3,0.1-0.3
	C371.8,103.4,371.9,103.4,371.9,103.6z M371.9,109.9c0,0.1-0.1,0.1-0.3,0.1l-0.1-0.1l0.1-0.1C371.7,109.8,371.8,109.8,371.9,109.9z
	 M378.2,109.9c0,0.1-0.1,0.1-0.3,0.1l-0.1-0.1l0.1-0.1C378,109.8,378.1,109.8,378.2,109.9z M384.6,109.9c0,0.1-0.1,0.1-0.3,0.1
	l-0.1-0.1l0.1-0.1C384.4,109.8,384.5,109.8,384.6,109.9z M391.1,91.1c0,0.3-0.2,0.4-0.5,0.4s-0.4-0.1-0.4-0.4s0.1-0.4,0.4-0.4
	C391,90.7,391.1,90.8,391.1,91.1z M391,97.3c0,0.3-0.1,0.4-0.4,0.4c-0.2,0-0.3-0.1-0.3-0.4s0.1-0.4,0.3-0.4
	C390.9,97,391,97.1,391,97.3z M390.9,103.6c0,0.2-0.1,0.3-0.3,0.3c-0.1,0-0.1-0.1-0.1-0.3s0-0.3,0.1-0.3
	C390.8,103.4,390.9,103.4,390.9,103.6z M390.9,109.9c0,0.1-0.1,0.1-0.3,0.1l-0.1-0.1l0.1-0.1C390.7,109.8,390.8,109.8,390.9,109.9z
	 M397.5,91.1c0,0.3-0.2,0.4-0.5,0.4s-0.4-0.1-0.4-0.4s0.1-0.4,0.4-0.4S397.5,90.8,397.5,91.1z M397.3,97.3c0,0.3-0.1,0.4-0.4,0.4
	c-0.2,0-0.3-0.1-0.3-0.4s0.1-0.4,0.3-0.4C397.2,97,397.3,97.1,397.3,97.3z M397.2,103.6c0,0.2-0.1,0.3-0.3,0.3
	c-0.1,0-0.1-0.1-0.1-0.3s0-0.3,0.1-0.3C397.1,103.4,397.2,103.4,397.2,103.6z M397.2,109.9c0,0.1-0.1,0.1-0.3,0.1l-0.1-0.1l0.1-0.1
	C397,109.8,397.1,109.8,397.2,109.9z"/>
</svg>
