<?xml version="1.0" encoding="UTF-8"?>
<svg id="Layer_1" data-name="Layer 1" xmlns="http://www.w3.org/2000/svg" viewBox="0 0 400.6329 115.677">
  <defs>
    <style>
      .cls-1 {
        fill: #999;
        stroke-width: 0px;
      }
    </style>
  </defs>
  <path class="cls-1" d="M58.992,47.4396c4.7393,5.5088,7.1084,13.3447,7.1084,23.5088,0,11.0176-2.4771,19.4521-7.4312,25.3018-4.9546,5.8506-12.0845,8.7764-21.3896,8.7764-5.8589,0-10.8564-1.2812-14.9922-3.8438l2.3267-1.665c3.6187,2.0498,7.8403,3.0742,12.6655,3.0742,8.4438,0,14.9272-2.6904,19.4507-8.0713,4.5239-5.3809,6.7856-13.1523,6.7856-23.3164,0-9.5654-2.1543-16.8467-6.4624-21.8428-4.3081-4.9966-10.5547-7.4946-18.7402-7.4946-8.4434,0-14.8843,2.5835-19.3213,7.7505-4.4375,5.167-6.6562,12.7051-6.6562,22.6123,0,5.4658.6895,10.2275,2.0679,14.2842,1.3789,4.0566,3.3604,7.3662,5.9453,9.9287l39.9355-28.0566v1.2812L2.5134,110.4074h-.3877c-.1724,0-.3018-.043-.3877-.1289-.1724-.3408-.1294-.5977.1294-.7686l16.2842-11.5303c-5.6865-5.6367-8.5298-14.1777-8.5298-25.6221,0-10.6758,2.4556-18.875,7.3667-24.5977s12.0625-8.5835,21.4541-8.5835c8.9609,0,15.8105,2.7544,20.5493,8.2632ZM8.7171,110.0226c-.0859,0-.1294-.043-.1294-.1279l.1294-.1279.1294.1279c0,.085-.043.1279-.1294.1279ZM15.3084,109.8947c0,.085-.043.1279-.1294.1279-.0859,0-.1289-.043-.1289-.1279l.1289-.1279c.0864,0,.1294.042.1294.1279ZM21.7703,109.8947c0,.085-.043.1279-.1289.1279l-.1294-.1279.1294-.1279c.0859,0,.1289.042.1289.1279ZM28.2327,110.0226c-.1724,0-.2583-.043-.2583-.1279l.2583-.1279.1294.1279c0,.085-.0435.1279-.1294.1279ZM34.9534,97.339c0,.2568-.0864.3848-.2588.3848-.2583,0-.3877-.1279-.3877-.3848,0-.2559.1294-.3838.3877-.3838.1724,0,.2588.1279.2588.3838ZM34.6946,110.0226c-.0859,0-.1289-.043-.1289-.1279l.1289-.1279.1294.1279c0,.085-.043.1279-.1294.1279ZM41.5447,91.0617c0,.2568-.1294.3848-.3877.3848-.2588,0-.3877-.1279-.3877-.3848,0-.2559.1289-.3838.3877-.3838.2583,0,.3877.1279.3877.3838ZM41.5447,97.339c0,.2568-.1294.3848-.3877.3848-.1724,0-.2588-.1279-.2588-.3848,0-.2559.0864-.3838.2588-.3838.2583,0,.3877.1279.3877.3838ZM41.2859,109.8947c0,.085-.043.1279-.1289.1279-.0864,0-.1294-.043-.1294-.1279l.1294-.1279c.0859,0,.1289.042.1289.1279ZM48.136,84.7843c0,.3418-.1724.5127-.5171.5127s-.5171-.1709-.5171-.5127.1724-.5127.5171-.5127.5171.1709.5171.5127ZM48.136,91.0617c0,.2568-.1724.3848-.5171.3848-.2583,0-.3877-.1279-.3877-.3848,0-.2559.1294-.3838.3877-.3838.3447,0,.5171.1279.5171.3838ZM47.7483,109.8947c0,.085-.0435.1279-.1294.1279l-.1294-.1279.1294-.1279c.0859,0,.1294.042.1294.1279ZM54.7273,78.507c0,.3418-.1724.5127-.5171.5127-.4307,0-.646-.1709-.646-.5127,0-.4268.2153-.6406.646-.6406.3447,0,.5171.2139.5171.6406ZM54.7273,84.7843c0,.3418-.1724.5127-.5171.5127s-.5171-.1709-.5171-.5127.1724-.5127.5171-.5127.5171.1709.5171.5127ZM54.5979,91.0617c0,.2568-.1294.3848-.3877.3848-.3447,0-.5171-.1279-.5171-.3848,0-.2559.1724-.3838.5171-.3838.2583,0,.3877.1279.3877.3838ZM54.2102,110.0226c-.0859,0-.1294-.043-.1294-.1279l.1294-.1279.1294.1279c0,.085-.043.1279-.1294.1279ZM60.9309,103.6173c0,.1709-.0864.2559-.2588.2559-.1719,0-.2583-.085-.2583-.2559s.0864-.2568.2583-.2568c.1724,0,.2588.0859.2588.2568ZM60.8015,109.8947c0,.085-.043.1279-.1294.1279-.0859,0-.1289-.043-.1289-.1279l.1289-.1279c.0864,0,.1294.042.1294.1279ZM67.5222,91.0617c0,.2568-.1294.3848-.3877.3848-.2588,0-.3877-.1279-.3877-.3848,0-.2559.1289-.3838.3877-.3838.2583,0,.3877.1279.3877.3838ZM67.5222,97.339c0,.2568-.1294.3848-.3877.3848-.1724,0-.2588-.1279-.2588-.3848,0-.2559.0864-.3838.2588-.3838.2583,0,.3877.1279.3877.3838ZM67.3928,103.6173c0,.1709-.0859.2559-.2583.2559s-.2588-.085-.2588-.2559.0864-.2568.2588-.2568.2583.0859.2583.2568ZM67.2634,109.8947c0,.085-.043.1279-.1289.1279l-.1294-.1279.1294-.1279c.0859,0,.1289.042.1289.1279ZM73.9841,60.0587l-5.0405,3.5869-.1289-1.2812,4.5234-3.2021c.3447-.3418.603-.2988.7754.1279.1724.3418.1294.5977-.1294.7686ZM74.5012,65.9523c0,.5117-.3018.7686-.9048.7686-.5171,0-.7754-.2568-.7754-.7686,0-.5986.2583-.8975.7754-.8975.603,0,.9048.2988.9048.8975ZM74.3718,72.2296c0,.4268-.2583.6406-.7754.6406-.4307,0-.646-.2139-.646-.6406,0-.5127.2153-.7686.646-.7686.5171,0,.7754.2559.7754.7686ZM74.2429,78.507c0,.3418-.2158.5127-.6465.5127-.3447,0-.5171-.1709-.5171-.5127,0-.4268.1724-.6406.5171-.6406.4307,0,.6465.2139.6465.6406ZM74.1135,84.7843c0,.3418-.1724.5127-.5171.5127s-.5171-.1709-.5171-.5127.1724-.5127.5171-.5127.5171.1709.5171.5127ZM74.1135,91.0617c0,.2568-.1724.3848-.5171.3848-.2583,0-.3877-.1279-.3877-.3848,0-.2559.1294-.3838.3877-.3838.3447,0,.5171.1279.5171.3838ZM73.9841,97.339c0,.2568-.1289.3848-.3877.3848-.1724,0-.2583-.1279-.2583-.3848,0-.2559.0859-.3838.2583-.3838.2588,0,.3877.1279.3877.3838ZM73.8552,103.6173c0,.1709-.0864.2559-.2588.2559-.0859,0-.1289-.085-.1289-.2559s.043-.2568.1289-.2568c.1724,0,.2588.0859.2588.2568ZM73.8552,109.8947c0,.085-.0864.1279-.2588.1279l-.1289-.1279.1289-.1279c.0864,0,.1724.042.2588.1279Z"/>
  <path class="cls-1" d="M73.9841,59.1623l4.6528,3.8428c-.0864.1709-.1294.3848-.1294.6406,0,.2568-.043.4697-.1294.6406l-5.04-4.2275c-.3447-.2559-.3877-.5127-.1294-.7686.2583-.2568.5171-.2988.7754-.1279ZM80.0584,91.0617c0,.2568-.1289.3848-.3877.3848-.2583,0-.3877-.1279-.3877-.3848,0-.2559.1294-.3838.3877-.3838.2588,0,.3877.1279.3877.3838ZM80.0584,97.339c0,.2568-.1289.3848-.3877.3848-.2583,0-.3877-.1279-.3877-.3848,0-.2559.1294-.3838.3877-.3838.2588,0,.3877.1279.3877.3838ZM79.9295,103.6173c0,.1709-.0864.2559-.2588.2559s-.2583-.085-.2583-.2559.0859-.2568.2583-.2568.2588.0859.2588.2568ZM79.8001,109.8947c0,.085-.043.1279-.1294.1279-.0859,0-.1289-.043-.1289-.1279l.1289-.1279c.0864,0,.1294.042.1294.1279ZM112.3689,102.2716c1.3789-.2129,2.8003-.5332,4.2651-.9609l2.1973,1.7939c-3.5327,1.2812-7.0654,1.9219-10.5981,1.9219-8.8745,0-15.6167-2.8184-20.2261-8.4561-4.6099-5.6367-6.9146-13.708-6.9146-24.2129,0-10.6758,2.4341-18.8535,7.3022-24.5337,4.8682-5.6797,11.8687-8.5195,21.0015-8.5195,3.2744,0,6.5483.5127,9.8228,1.5376,3.2739,1.0249,6.2036,2.4341,8.7881,4.2275l-.7754,2.4341h-.7754c-2.4126-1.7935-5.0835-3.1816-8.0127-4.1636-2.9297-.9824-5.9453-1.4731-9.0474-1.4731-8.3574,0-14.7119,2.605-19.063,7.8149s-6.5269,12.7686-6.5269,22.6758c0,9.8223,2.0894,17.3164,6.2686,22.4834,4.1787,5.168,10.1885,7.751,18.0293,7.751,1.4644,0,2.8862-.1064,4.2646-.3203ZM85.8743,103.6173c0,.1709-.043.2559-.1289.2559-.1724,0-.2588-.085-.2588-.2559s.0864-.2568.2588-.2568c.0859,0,.1289.0859.1289.2568ZM85.7454,110.0226c-.0864,0-.1294-.043-.1294-.1279l.1294-.1279.1289.1279c0,.085-.043.1279-.1289.1279ZM134.4695,110.2785c-.0864.0859-.2588.1289-.5171.1289-.1724,0-.2583-.043-.2583-.1289l-46.5273-38.6895v-1.5371l34.7661,29.0811c1.8096-.8535,3.6187-1.9639,5.4282-3.3311l.7754.2568-.2583,2.4336c-.603.4268-1.228.833-1.874,1.2168-.6465.3848-1.314.79-2.0034,1.2178l10.3394,8.583c.2583.1709.3018.4277.1294.7686ZM92.2073,84.7843c0,.3418-.1724.5127-.5171.5127s-.5166-.1709-.5166-.5127.1719-.5127.5166-.5127.5171.1709.5171.5127ZM91.949,109.8947c0,.085-.0864.1279-.2588.1279l-.1289-.1279.1289-.1279c.0864,0,.1724.042.2588.1279ZM98.2815,84.7843c0,.3418-.1724.5127-.5166.5127-.3447,0-.5171-.1709-.5171-.5127s.1724-.5127.5171-.5127c.3442,0,.5166.1709.5166.5127ZM98.1526,91.0617c0,.2568-.1294.3848-.3877.3848-.2588,0-.3882-.1279-.3882-.3848,0-.2559.1294-.3838.3882-.3838.2583,0,.3877.1279.3877.3838ZM97.8938,109.8947c0,.085-.043.1279-.1289.1279l-.1294-.1279.1294-.1279c.0859,0,.1289.042.1289.1279ZM104.2268,91.0617c0,.2568-.1294.3848-.3877.3848s-.3877-.1279-.3877-.3848c0-.2559.1294-.3838.3877-.3838s.3877.1279.3877.3838ZM104.0974,97.339c0,.2568-.0859.3848-.2583.3848-.2583,0-.3877-.1279-.3877-.3848,0-.2559.1294-.3838.3877-.3838.1724,0,.2583.1279.2583.3838ZM103.8391,110.0226c-.0864,0-.1294-.043-.1294-.1279l.1294-.1279.1294.1279c0,.085-.0435.1279-.1294.1279ZM110.1721,97.339c0,.2568-.0864.3848-.2588.3848-.2583,0-.3877-.1279-.3877-.3848,0-.2559.1294-.3838.3877-.3838.1724,0,.2588.1279.2588.3838ZM109.9133,110.0226c-.1724,0-.2583-.043-.2583-.1279l.2583-.1279.1294.1279c0,.085-.043.1279-.1294.1279ZM115.988,109.8947c0,.085-.0435.1279-.1294.1279l-.1294-.1279.1294-.1279c.0859,0,.1294.042.1294.1279ZM122.0623,109.8947c0,.085-.043.1279-.1294.1279-.0859,0-.1294-.043-.1294-.1279l.1294-.1279c.0864,0,.1294.042.1294.1279ZM128.0071,110.0226c-.0859,0-.1289-.043-.1289-.1279l.1289-.1279.1294.1279c0,.085-.043.1279-.1294.1279Z"/>
  <path class="cls-1" d="M189.656,60.0587l-55.3154,50.2197c0,.0859-.1294.1289-.3877.1289-.1724,0-.3018-.043-.3877-.1289-.1724-.2559-.1294-.5117.1294-.7686l26.7529-24.4697v-42.7891h-9.564l-11.1147.1279-.3877-.5122.3877-2.1782h43.9424l.2583.5127-.3877,2.1777-10.7271-.1279h-9.8223v40.4834l25.9775-23.5723c.1724-.1709.4307-.1709.7754,0,.1724.3408.1294.6406-.1294.8965ZM140.2859,109.8947c0,.085-.0435.1279-.1294.1279s-.1294-.043-.1294-.1279l.1294-.1279c.0859,0,.1294.042.1294.1279ZM146.4895,103.6173c0,.1709-.0435.2559-.1294.2559-.1724,0-.2583-.085-.2583-.2559s.0859-.2568.2583-.2568c.0859,0,.1294.0859.1294.2568ZM146.3601,110.0226c-.1724,0-.2583-.043-.2583-.1279l.2583-.1279.1294.1279c0,.085-.0435.1279-.1294.1279ZM152.6931,103.6173c0,.1709-.0864.2559-.2588.2559s-.2583-.085-.2583-.2559.0859-.2568.2583-.2568.2588.0859.2588.2568ZM152.5637,109.8947c0,.085-.043.1279-.1294.1279l-.1289-.1279.1289-.1279c.0864,0,.1294.042.1294.1279ZM158.6379,110.0226c-.0859,0-.1289-.043-.1289-.1279l.1289-.1279.1294.1279c0,.085-.043.1279-.1294.1279ZM163.0325,89.5246v14.9893h-2.585v-12.5547l2.585-2.4346ZM164.8416,109.8947c0,.085-.043.1279-.1289.1279l-.1294-.1279.1294-.1279c.0859,0,.1289.042.1289.1279ZM171.4329,84.7843c0,.3418-.1724.5127-.5166.5127-.3447,0-.5171-.1709-.5171-.5127s.1724-.5127.5171-.5127c.3442,0,.5166.1709.5166.5127ZM171.304,91.0617c0,.2568-.1294.3848-.3877.3848-.2588,0-.3877-.1279-.3877-.3848,0-.2559.1289-.3838.3877-.3838.2583,0,.3877.1279.3877.3838ZM171.1746,97.339c0,.2568-.0859.3848-.2583.3848-.2588,0-.3877-.1279-.3877-.3848,0-.2559.1289-.3838.3877-.3838.1724,0,.2583.1279.2583.3838ZM171.1746,103.6173c0,.1709-.0859.2559-.2583.2559s-.2588-.085-.2588-.2559.0864-.2568.2588-.2568.2583.0859.2583.2568ZM170.9163,110.0226c-.0864,0-.1294-.043-.1294-.1279l.1294-.1279.1289.1279c0,.085-.043.1279-.1289.1279ZM177.6365,78.507c0,.3418-.2153.5127-.646.5127-.3447,0-.5171-.1709-.5171-.5127,0-.4268.1724-.6406.5171-.6406.4307,0,.646.2139.646.6406ZM177.5076,84.7843c0,.3418-.1724.5127-.5171.5127s-.5171-.1709-.5171-.5127.1724-.5127.5171-.5127.5171.1709.5171.5127ZM177.5076,91.0617c0,.2568-.1724.3848-.5171.3848-.2583,0-.3877-.1279-.3877-.3848,0-.2559.1294-.3838.3877-.3838.3447,0,.5171.1279.5171.3838ZM177.3782,97.339c0,.2568-.1294.3848-.3877.3848-.1724,0-.2583-.1279-.2583-.3848,0-.2559.0859-.3838.2583-.3838.2583,0,.3877.1279.3877.3838ZM177.2488,103.6173c0,.1709-.0859.2559-.2583.2559-.0864,0-.1294-.085-.1294-.2559s.043-.2568.1294-.2568c.1724,0,.2583.0859.2583.2568ZM177.1199,109.8947c0,.085-.0435.1279-.1294.1279l-.1294-.1279.1294-.1279c.0859,0,.1294.042.1294.1279ZM183.8401,72.2296c0,.4268-.2153.6406-.646.6406s-.6465-.2139-.6465-.6406c0-.5127.2158-.7686.6465-.7686s.646.2559.646.7686ZM183.8401,78.507c0,.3418-.2153.5127-.646.5127s-.6465-.1709-.6465-.5127c0-.4268.2158-.6406.6465-.6406s.646.2139.646.6406ZM183.7112,84.7843c0,.3418-.1724.5127-.5171.5127s-.5171-.1709-.5171-.5127.1724-.5127.5171-.5127.5171.1709.5171.5127ZM183.5818,91.0617c0,.2568-.1294.3848-.3877.3848s-.3877-.1279-.3877-.3848c0-.2559.1294-.3838.3877-.3838s.3877.1279.3877.3838ZM183.4524,97.339c0,.2568-.0859.3848-.2583.3848-.2583,0-.3877-.1279-.3877-.3848,0-.2559.1294-.3838.3877-.3838.1724,0,.2583.1279.2583.3838ZM183.4524,103.6173c0,.1709-.0859.2559-.2583.2559s-.2583-.085-.2583-.2559.0859-.2568.2583-.2568.2583.0859.2583.2568ZM183.3235,109.8947c0,.085-.0435.1279-.1294.1279-.0864,0-.1294-.043-.1294-.1279l.1294-.1279c.0859,0,.1294.042.1294.1279ZM190.1731,65.9523c0,.5117-.3018.7686-.9048.7686-.5166,0-.7754-.2568-.7754-.7686,0-.5986.2588-.8975.7754-.8975.603,0,.9048.2988.9048.8975ZM190.0437,72.2296c0,.4268-.2583.6406-.7754.6406-.4307,0-.646-.2139-.646-.6406,0-.5127.2153-.7686.646-.7686.5171,0,.7754.2559.7754.7686ZM189.9148,78.507c0,.3418-.2153.5127-.6465.5127-.3447,0-.5166-.1709-.5166-.5127,0-.4268.1719-.6406.5166-.6406.4312,0,.6465.2139.6465.6406ZM189.7854,84.7843c0,.3418-.1724.5127-.5171.5127s-.5166-.1709-.5166-.5127.1719-.5127.5166-.5127.5171.1709.5171.5127ZM189.7854,91.0617c0,.2568-.1724.3848-.5171.3848-.2583,0-.3877-.1279-.3877-.3848,0-.2559.1294-.3838.3877-.3838.3447,0,.5171.1279.5171.3838ZM189.656,97.339c0,.2568-.1289.3848-.3877.3848-.1724,0-.2583-.1279-.2583-.3848,0-.2559.0859-.3838.2583-.3838.2588,0,.3877.1279.3877.3838ZM189.5271,103.6173c0,.1709-.0864.2559-.2588.2559-.0859,0-.1289-.085-.1289-.2559s.043-.2568.1289-.2568c.1724,0,.2588.0859.2588.2568ZM189.5271,109.8947c0,.085-.0864.1279-.2588.1279l-.1289-.1279.1289-.1279c.0864,0,.1724.042.2588.1279Z"/>
  <path class="cls-1" d="M189.1389,59.1623l10.8564-4.6123v1.1533l-10.4688,4.3555-.2583.1279c-.2583,0-.3877-.1279-.3877-.3838-.2583-.4277-.1724-.6406.2583-.6406ZM196.1179,65.9523c0,.5117-.2583.7686-.7754.7686-.5166,0-.7754-.2568-.7754-.7686,0-.5986.2588-.8975.7754-.8975.5171,0,.7754.2988.7754.8975ZM195.989,72.2296c0,.4268-.2153.6406-.6465.6406-.4307,0-.646-.2139-.646-.6406,0-.5127.2153-.7686.646-.7686.4312,0,.6465.2559.6465.7686ZM195.989,78.507c0,.3418-.2153.5127-.6465.5127-.4307,0-.646-.1709-.646-.5127,0-.4268.2153-.6406.646-.6406.4312,0,.6465.2139.6465.6406ZM195.8596,84.7843c0,.3418-.1724.5127-.5171.5127s-.5166-.1709-.5166-.5127.1719-.5127.5166-.5127.5171.1709.5171.5127ZM195.7302,91.0617c0,.2568-.1289.3848-.3877.3848-.2583,0-.3877-.1279-.3877-.3848,0-.2559.1294-.3838.3877-.3838.2588,0,.3877.1279.3877.3838ZM195.7302,97.339c0,.2568-.1289.3848-.3877.3848-.2583,0-.3877-.1279-.3877-.3848,0-.2559.1294-.3838.3877-.3838.2588,0,.3877.1279.3877.3838ZM195.6013,103.6173c0,.1709-.0864.2559-.2588.2559s-.2583-.085-.2583-.2559.0859-.2568.2583-.2568.2588.0859.2588.2568ZM195.4719,109.8947c0,.085-.043.1279-.1294.1279-.0859,0-.1289-.043-.1289-.1279l.1289-.1279c.0864,0,.1294.042.1294.1279ZM201.4172,110.0226c-.0864,0-.1294-.043-.1294-.1279l.1294-.1279.1289.1279c0,.085-.043.1279-.1289.1279ZM249.7537,34.9484l-40.7114,16.9111v-1.1533l17.4478-7.1738c-2.0674-.8545-4.5234-1.3667-7.3672-1.5376l-13.3115.1279v35.231l14.8633.1279c4.7383-1.1953,8.3574-3.5225,10.8555-6.9814,2.499-3.459,3.748-7.5371,3.748-12.2354,0-4.7822-1.292-8.583-3.877-11.4019l2.7139-1.1528c2.585,3.2456,3.8779,7.3877,3.8779,12.4268,0,4.9541-1.3145,9.3525-3.9424,13.1953-2.6279,3.8438-6.4404,6.5342-11.4375,8.0713,2.8428,4.6123,5.7295,8.7969,8.6592,12.5557,2.9297,3.7578,6.333,7.6436,10.21,11.6582l.1289.5117c-.3447.1709-.624.3418-.8398.5127s-.4951.3418-.8398.5127l-.9053-.2559c-3.9629-3.8438-7.3877-7.8154-10.2744-11.915s-5.8379-8.4551-8.8535-13.0674h-14.0869v24.5977h-2.585V39.6886l15.3799-.1279c4.3945,0,8.0996.854,11.1152,2.562l19.6445-8.1992c.2588-.1704.4736-.0854.6465.2563.0859.3418,0,.5981-.2588.7686ZM207.4915,109.8947c0,.085-.043.1279-.1294.1279l-.1289-.1279.1289-.1279c.0864,0,.1294.042.1294.1279ZM214.3411,53.2687c0,.6836-.3013,1.0254-.9043,1.0254-.6895,0-1.0342-.3418-1.0342-1.0254,0-.5977.3447-.8965,1.0342-.8965.603,0,.9043.2988.9043.8965ZM214.3411,59.5461c0,.5977-.3013.8965-.9043.8965-.6035,0-.9048-.2988-.9048-.8965,0-.5127.3013-.7686.9048-.7686.603,0,.9043.2559.9043.7686ZM214.2122,65.9523c0,.5117-.2588.7686-.7754.7686-.5171,0-.7759-.2568-.7759-.7686,0-.5986.2588-.8975.7759-.8975.5166,0,.7754.2988.7754.8975ZM214.0828,72.2296c0,.4268-.2153.6406-.646.6406-.4312,0-.6465-.2139-.6465-.6406,0-.5127.2153-.7686.6465-.7686.4307,0,.646.2559.646.7686ZM213.9534,84.7843c0,.3418-.1724.5127-.5166.5127-.3447,0-.5171-.1709-.5171-.5127s.1724-.5127.5171-.5127c.3442,0,.5166.1709.5166.5127ZM213.8245,91.0617c0,.2568-.1294.3848-.3877.3848-.2588,0-.3882-.1279-.3882-.3848,0-.2559.1294-.3838.3882-.3838.2583,0,.3877.1279.3877.3838ZM213.6951,97.339c0,.2568-.0864.3848-.2583.3848-.2588,0-.3882-.1279-.3882-.3848,0-.2559.1294-.3838.3882-.3838.1719,0,.2583.1279.2583.3838ZM213.6951,103.6173c0,.1709-.0864.2559-.2583.2559-.1724,0-.2588-.085-.2588-.2559s.0864-.2568.2588-.2568c.1719,0,.2583.0859.2583.2568ZM213.4368,110.0226c-.0864,0-.1294-.043-.1294-.1279l.1294-.1279.1289.1279c0,.085-.043.1279-.1289.1279ZM220.4158,53.2687c0,.6836-.3447,1.0254-1.0342,1.0254-.6035,0-.9043-.3418-.9043-1.0254,0-.5977.3008-.8965.9043-.8965.6895,0,1.0342.2988,1.0342.8965ZM220.2859,59.5461c0,.5977-.3008.8965-.9043.8965-.5166,0-.7754-.2988-.7754-.8965,0-.5127.2588-.7686.7754-.7686.6035,0,.9043.2559.9043.7686ZM220.2859,65.9523c0,.5117-.3008.7686-.9043.7686-.5166,0-.7754-.2568-.7754-.7686,0-.5986.2588-.8975.7754-.8975.6035,0,.9043.2988.9043.8975ZM220.157,72.2296c0,.4268-.2588.6406-.7754.6406-.4307,0-.6465-.2139-.6465-.6406,0-.5127.2158-.7686.6465-.7686.5166,0,.7754.2559.7754.7686ZM219.8982,91.0617c0,.2568-.1719.3848-.5166.3848-.2588,0-.3877-.1279-.3877-.3848,0-.2559.1289-.3838.3877-.3838.3447,0,.5166.1279.5166.3838ZM219.7693,97.339c0,.2568-.1289.3848-.3877.3848-.1719,0-.2588-.1279-.2588-.3848,0-.2559.0869-.3838.2588-.3838.2588,0,.3877.1279.3877.3838ZM219.6404,103.6173c0,.1709-.0859.2559-.2588.2559-.0859,0-.1289-.085-.1289-.2559s.043-.2568.1289-.2568c.1729,0,.2588.0859.2588.2568ZM219.6404,109.8947c0,.085-.0859.1279-.2588.1279l-.1289-.1279.1289-.1279c.0859,0,.1729.042.2588.1279ZM226.49,53.2687c0,.6836-.3447,1.0254-1.0342,1.0254-.6025,0-.9043-.3418-.9043-1.0254,0-.5977.3018-.8965.9043-.8965.6895,0,1.0342.2988,1.0342.8965ZM226.3611,59.5461c0,.5977-.3018.8965-.9053.8965-.6025,0-.9043-.2988-.9043-.8965,0-.5127.3018-.7686.9043-.7686.6035,0,.9053.2559.9053.7686ZM226.2312,65.9523c0,.5117-.2578.7686-.7754.7686-.5166,0-.7754-.2568-.7754-.7686,0-.5986.2588-.8975.7754-.8975.5176,0,.7754.2988.7754.8975ZM225.8435,97.339c0,.2568-.1289.3848-.3877.3848-.2578,0-.3877-.1279-.3877-.3848,0-.2559.1299-.3838.3877-.3838.2588,0,.3877.1279.3877.3838ZM225.7146,103.6173c0,.1709-.0859.2559-.2588.2559-.1719,0-.2578-.085-.2578-.2559s.0859-.2568.2578-.2568c.1729,0,.2588.0859.2588.2568ZM225.5857,109.8947c0,.085-.0439.1279-.1299.1279s-.1289-.043-.1289-.1279l.1289-.1279c.0859,0,.1299.042.1299.1279ZM232.0476,84.7843c0,.3418-.1729.5127-.5176.5127s-.5166-.1709-.5166-.5127.1719-.5127.5166-.5127.5176.1709.5176.5127ZM231.6599,103.6173c0,.1709-.043.2559-.1299.2559-.1719,0-.2578-.085-.2578-.2559s.0859-.2568.2578-.2568c.0869,0,.1299.0859.1299.2568ZM231.53,110.0226c-.0859,0-.1289-.043-.1289-.1279l.1289-.1279.1299.1279c0,.085-.043.1279-.1299.1279ZM238.1218,78.507c0,.3418-.2158.5127-.6465.5127-.3447,0-.5166-.1709-.5166-.5127,0-.4268.1719-.6406.5166-.6406.4307,0,.6465.2139.6465.6406ZM237.9929,84.7843c0,.3418-.1729.5127-.5176.5127s-.5166-.1709-.5166-.5127.1719-.5127.5166-.5127.5176.1709.5176.5127ZM237.9929,91.0617c0,.2568-.1729.3848-.5176.3848-.2578,0-.3877-.1279-.3877-.3848,0-.2559.1299-.3838.3877-.3838.3447,0,.5176.1279.5176.3838ZM237.6052,109.8947c0,.085-.0439.1279-.1299.1279l-.1289-.1279.1289-.1279c.0859,0,.1299.042.1299.1279ZM244.7127,40.7135c0,.769-.3877,1.1533-1.1631,1.1533s-1.1631-.3843-1.1631-1.1533c0-.7686.3877-1.1528,1.1631-1.1528s1.1631.3843,1.1631,1.1528ZM244.5837,46.9914c0,.7686-.3447,1.1528-1.0342,1.1528-.6885,0-1.0332-.3843-1.0332-1.1528,0-.6836.3447-1.0249,1.0332-1.0249.6895,0,1.0342.3413,1.0342,1.0249ZM244.4548,53.2687c0,.6836-.3018,1.0254-.9053,1.0254-.6885,0-1.0332-.3418-1.0332-1.0254,0-.5977.3447-.8965,1.0332-.8965.6035,0,.9053.2988.9053.8965ZM244.4548,59.5461c0,.5977-.3018.8965-.9053.8965-.6025,0-.9043-.2988-.9043-.8965,0-.5127.3018-.7686.9043-.7686.6035,0,.9053.2559.9053.7686ZM244.325,65.9523c0,.5117-.2578.7686-.7754.7686-.5166,0-.7754-.2568-.7754-.7686,0-.5986.2588-.8975.7754-.8975.5176,0,.7754.2988.7754.8975ZM244.1961,72.2296c0,.4268-.2148.6406-.6465.6406-.4307,0-.6455-.2139-.6455-.6406,0-.5127.2148-.7686.6455-.7686.4316,0,.6465.2559.6465.7686ZM244.1961,78.507c0,.3418-.2148.5127-.6465.5127-.4307,0-.6455-.1709-.6455-.5127,0-.4268.2148-.6406.6455-.6406.4316,0,.6465.2139.6465.6406ZM244.0671,84.7843c0,.3418-.1729.5127-.5176.5127s-.5166-.1709-.5166-.5127.1719-.5127.5166-.5127.5176.1709.5176.5127ZM243.9373,91.0617c0,.2568-.1289.3848-.3877.3848-.2578,0-.3877-.1279-.3877-.3848,0-.2559.1299-.3838.3877-.3838.2588,0,.3877.1279.3877.3838ZM243.8084,97.339c0,.2568-.0859.3848-.2588.3848-.2578,0-.3877-.1279-.3877-.3848,0-.2559.1299-.3838.3877-.3838.1729,0,.2588.1279.2588.3838ZM243.5496,110.0226c-.0859,0-.1289-.043-.1289-.1279l.1289-.1279.1299.1279c0,.085-.043.1279-.1299.1279ZM250.658,40.7135c0,.769-.3877,1.1533-1.1631,1.1533-.2578,0-.5166-.1069-.7754-.3203-.2588-.2139-.3877-.4912-.3877-.833,0-.3413.1289-.6191.3877-.8325s.5176-.3203.7754-.3203c.7754,0,1.1631.3843,1.1631,1.1528ZM250.658,46.9914c0,.7686-.3877,1.1528-1.1631,1.1528-.6895,0-1.0342-.3843-1.0342-1.1528,0-.6836.3447-1.0249,1.0342-1.0249.7754,0,1.1631.3413,1.1631,1.0249ZM250.5291,53.2687c0,.6836-.3447,1.0254-1.0342,1.0254-.6025,0-.9043-.3418-.9043-1.0254,0-.5977.3018-.8965.9043-.8965.6895,0,1.0342.2988,1.0342.8965ZM250.4002,59.5461c0,.5977-.3018.8965-.9053.8965-.5166,0-.7754-.2988-.7754-.8965,0-.5127.2588-.7686.7754-.7686.6035,0,.9053.2559.9053.7686ZM250.4002,65.9523c0,.5117-.3018.7686-.9053.7686-.5166,0-.7754-.2568-.7754-.7686,0-.5986.2588-.8975.7754-.8975.6035,0,.9053.2988.9053.8975ZM250.2703,72.2296c0,.4268-.2578.6406-.7754.6406-.4307,0-.6465-.2139-.6465-.6406,0-.5127.2158-.7686.6465-.7686.5176,0,.7754.2559.7754.7686ZM250.1414,78.507c0,.3418-.2158.5127-.6465.5127-.3447,0-.5166-.1709-.5166-.5127,0-.4268.1719-.6406.5166-.6406.4307,0,.6465.2139.6465.6406ZM250.0125,84.7843c0,.3418-.1729.5127-.5176.5127s-.5166-.1709-.5166-.5127.1719-.5127.5166-.5127.5176.1709.5176.5127ZM250.0125,91.0617c0,.2568-.1729.3848-.5176.3848-.2578,0-.3877-.1279-.3877-.3848,0-.2559.1299-.3838.3877-.3838.3447,0,.5176.1279.5176.3838ZM249.8826,97.339c0,.2568-.1289.3848-.3877.3848-.1719,0-.2578-.1279-.2578-.3848,0-.2559.0859-.3838.2578-.3838.2588,0,.3877.1279.3877.3838ZM249.7537,103.6173c0,.1709-.0859.2559-.2588.2559-.0859,0-.1289-.085-.1289-.2559s.043-.2568.1289-.2568c.1729,0,.2588.0859.2588.2568ZM249.7537,109.8947c0,.085-.0859.1279-.2588.1279l-.1289-.1279.1289-.1279c.0859,0,.1729.042.2588.1279Z"/>
  <path class="cls-1" d="M262.03,14.1945c0,.1704-.043.2988-.1289.3843l-12.0195,11.9146c-.0859.0854-.2158.1279-.3877.1279s-.3018-.0425-.3877-.1279l-12.0195-11.9146c-.3447-.3418-.3447-.5981,0-.769l12.0195-11.9141c.1719-.1709.3018-.2563.3877-.2563s.2158.0854.3877.2563l12.0195,11.9141c.0859.0854.1289.2139.1289.3848ZM249.4939,3.0485l-11.2441,11.146,11.2441,11.1455,11.2441-11.1455-11.2441-11.146ZM249.4939,8.6857l5.5576,5.2524-.6465.7686-4.3945-4.0996v9.2241h-1.0332v-9.2241l-4.3945,4.0996-.6465-.7686,5.5576-5.2524Z"/>
  <path class="cls-1" d="M306.3601,47.4396c4.7393,5.5088,7.1084,13.3447,7.1084,23.5088,0,11.0176-2.4766,19.4521-7.4316,25.3018-4.9541,5.8506-12.084,8.7764-21.3896,8.7764-8.874,0-15.7021-2.8184-20.4844-8.4561-4.7822-5.6367-7.1729-13.708-7.1729-24.2129,0-12.3848,3.3174-21.3945,9.9512-27.0317l2.9727,1.0249c-3.2734,2.4766-5.7939,5.8721-7.5605,10.1846-1.7666,4.3135-2.6494,9.5449-2.6494,15.6943,0,9.8213,2.1328,17.3379,6.3975,22.5479,4.2656,5.21,10.4473,7.8145,18.5459,7.8145,8.4443,0,14.9277-2.6904,19.4512-8.0713s6.7852-13.1523,6.7852-23.3164c0-9.5654-2.1533-16.8467-6.4619-21.8428-4.3076-4.9966-10.5547-7.4946-18.7402-7.4946-1.7227,0-3.3818.1064-4.9756.3203-1.5938.2134-3.123.5762-4.5879,1.0889l26.7529,9.3521,1.0342,1.5371-54.54-19.2168c-.3447-.1704-.4307-.3843-.2588-.6406,0-.4268.2158-.5547.6465-.3843l22.6172,7.9434c3.877-1.7939,8.3574-2.6904,13.4414-2.6904,8.96,0,15.8105,2.7544,20.5488,8.2632ZM257.1189,46.9914c0,.7686-.3447,1.1528-1.0332,1.1528-.7764,0-1.1641-.3843-1.1641-1.1528,0-.6836.3877-1.0249,1.1641-1.0249.6885,0,1.0332.3413,1.0332,1.0249ZM256.4734,91.0617c0,.2568-.1299.3848-.3877.3848-.3447,0-.5176-.1279-.5176-.3848,0-.2559.1729-.3838.5176-.3838.2578,0,.3877.1279.3877.3838ZM256.3435,97.339c0,.2568-.0859.3848-.2578.3848-.2588,0-.3877-.1279-.3877-.3848,0-.2559.1289-.3838.3877-.3838.1719,0,.2578.1279.2578.3838ZM256.2146,103.6173c0,.1709-.043.2559-.1289.2559-.1729,0-.2588-.085-.2588-.2559s.0859-.2568.2588-.2568c.0859,0,.1289.0859.1289.2568ZM256.0857,110.0226c-.0869,0-.1299-.043-.1299-.1279l.1299-.1279.1289.1279c0,.085-.043.1279-.1289.1279ZM262.8054,103.6173c0,.1709-.0859.2559-.2578.2559-.1729,0-.2588-.085-.2588-.2559s.0859-.2568.2588-.2568c.1719,0,.2578.0859.2578.2568ZM262.6765,109.8947c0,.085-.043.1279-.1289.1279-.0869,0-.1299-.043-.1299-.1279l.1299-.1279c.0859,0,.1289.042.1289.1279ZM269.9138,59.5461c0,.5977-.3008.8965-.9043.8965-.5166,0-.7754-.2988-.7754-.8965,0-.5127.2588-.7686.7754-.7686.6035,0,.9043.2559.9043.7686ZM269.7849,65.9523c0,.5117-.2588.7686-.7754.7686s-.7754-.2568-.7754-.7686c0-.5986.2588-.8975.7754-.8975s.7754.2988.7754.8975ZM269.7849,72.2296c0,.4268-.2588.6406-.7754.6406-.4307,0-.6465-.2139-.6465-.6406,0-.5127.2158-.7686.6465-.7686.5166,0,.7754.2559.7754.7686ZM269.656,78.507c0,.3418-.2158.5127-.6465.5127-.3447,0-.5166-.1709-.5166-.5127,0-.4268.1719-.6406.5166-.6406.4307,0,.6465.2139.6465.6406ZM269.5261,84.7843c0,.3418-.1719.5127-.5166.5127s-.5166-.1709-.5166-.5127.1719-.5127.5166-.5127.5166.1709.5166.5127ZM269.5261,91.0617c0,.2568-.1719.3848-.5166.3848-.2588,0-.3877-.1279-.3877-.3848,0-.2559.1289-.3838.3877-.3838.3447,0,.5166.1279.5166.3838ZM269.1384,109.8947c0,.085-.043.1279-.1289.1279l-.1289-.1279.1289-.1279c.0859,0,.1289.042.1289.1279ZM276.5056,53.2687c0,.6836-.3018,1.0254-.9053,1.0254-.6885,0-1.0332-.3418-1.0332-1.0254,0-.5977.3447-.8965,1.0332-.8965.6035,0,.9053.2988.9053.8965ZM276.3757,59.5461c0,.5977-.2578.8965-.7754.8965-.6025,0-.9043-.2988-.9043-.8965,0-.5127.3018-.7686.9043-.7686.5176,0,.7754.2559.7754.7686ZM276.3757,65.9523c0,.5117-.2578.7686-.7754.7686-.6025,0-.9043-.2568-.9043-.7686,0-.5986.3018-.8975.9043-.8975.5176,0,.7754.2988.7754.8975ZM276.2468,72.2296c0,.4268-.2148.6406-.6465.6406-.5166,0-.7754-.2139-.7754-.6406,0-.5127.2588-.7686.7754-.7686.4316,0,.6465.2559.6465.7686ZM276.1179,78.507c0,.3418-.1729.5127-.5176.5127-.4307,0-.6455-.1709-.6455-.5127,0-.4268.2148-.6406.6455-.6406.3447,0,.5176.2139.5176.6406ZM276.1179,84.7843c0,.3418-.1729.5127-.5176.5127-.3438,0-.5166-.1709-.5166-.5127s.1729-.5127.5166-.5127c.3447,0,.5176.1709.5176.5127ZM275.988,91.0617c0,.2568-.1289.3848-.3877.3848-.3438,0-.5166-.1279-.5166-.3848,0-.2559.1729-.3838.5166-.3838.2588,0,.3877.1279.3877.3838ZM275.8591,97.339c0,.2568-.0859.3848-.2588.3848-.2578,0-.3877-.1279-.3877-.3848,0-.2559.1299-.3838.3877-.3838.1729,0,.2588.1279.2588.3838ZM275.6004,110.0226c-.1719,0-.2578-.043-.2578-.1279l.2578-.1279.1299.1279c0,.085-.043.1279-.1299.1279ZM282.9675,53.2687c0,.6836-.3018,1.0254-.9043,1.0254-.6895,0-1.0342-.3418-1.0342-1.0254,0-.5977.3447-.8965,1.0342-.8965.6025,0,.9043.2988.9043.8965ZM282.9675,59.5461c0,.5977-.3018.8965-.9043.8965-.6035,0-.9053-.2988-.9053-.8965,0-.5127.3018-.7686.9053-.7686.6025,0,.9043.2559.9043.7686ZM282.8386,65.9523c0,.5117-.2588.7686-.7754.7686-.5176,0-.7754-.2568-.7754-.7686,0-.5986.2578-.8975.7754-.8975.5166,0,.7754.2988.7754.8975ZM282.7087,72.2296c0,.4268-.2148.6406-.6455.6406-.5176,0-.7754-.2139-.7754-.6406,0-.5127.2578-.7686.7754-.7686.4307,0,.6455.2559.6455.7686ZM282.7087,78.507c0,.3418-.2148.5127-.6455.5127-.4316,0-.6465-.1709-.6465-.5127,0-.4268.2148-.6406.6465-.6406.4307,0,.6455.2139.6455.6406ZM282.5798,84.7843c0,.3418-.1719.5127-.5166.5127s-.5176-.1709-.5176-.5127.1729-.5127.5176-.5127.5166.1709.5166.5127ZM282.4509,91.0617c0,.2568-.1299.3848-.3877.3848-.2588,0-.3877-.1279-.3877-.3848,0-.2559.1289-.3838.3877-.3838.2578,0,.3877.1279.3877.3838ZM282.3211,97.339c0,.2568-.0859.3848-.2578.3848-.2588,0-.3877-.1279-.3877-.3848,0-.2559.1289-.3838.3877-.3838.1719,0,.2578.1279.2578.3838ZM282.0632,110.0226c-.0869,0-.1299-.043-.1299-.1279l.1299-.1279.1289.1279c0,.085-.043.1279-.1289.1279ZM289.5593,53.2687c0,.6836-.3447,1.0254-1.0342,1.0254-.6035,0-.9053-.3418-.9053-1.0254,0-.5977.3018-.8965.9053-.8965.6895,0,1.0342.2988,1.0342.8965ZM289.4295,59.5461c0,.5977-.3018.8965-.9043.8965-.6035,0-.9053-.2988-.9053-.8965,0-.5127.3018-.7686.9053-.7686.6025,0,.9043.2559.9043.7686ZM289.3005,65.9523c0,.5117-.2588.7686-.7754.7686-.5176,0-.7754-.2568-.7754-.7686,0-.5986.2578-.8975.7754-.8975.5166,0,.7754.2988.7754.8975ZM289.1716,72.2296c0,.4268-.2158.6406-.6465.6406s-.6465-.2139-.6465-.6406c0-.5127.2158-.7686.6465-.7686s.6465.2559.6465.7686ZM289.1716,78.507c0,.3418-.2158.5127-.6465.5127s-.6465-.1709-.6465-.5127c0-.4268.2158-.6406.6465-.6406s.6465.2139.6465.6406ZM289.0418,84.7843c0,.3418-.1719.5127-.5166.5127s-.5176-.1709-.5176-.5127.1729-.5127.5176-.5127.5166.1709.5166.5127ZM288.9129,91.0617c0,.2568-.1289.3848-.3877.3848s-.3877-.1279-.3877-.3848c0-.2559.1289-.3838.3877-.3838s.3877.1279.3877.3838ZM288.9129,97.339c0,.2568-.1289.3848-.3877.3848-.1729,0-.2588-.1279-.2588-.3848,0-.2559.0859-.3838.2588-.3838.2588,0,.3877.1279.3877.3838ZM288.6541,109.8947c0,.085-.043.1279-.1289.1279s-.1299-.043-.1299-.1279l.1299-.1279c.0859,0,.1289.042.1289.1279ZM295.8914,59.5461c0,.5977-.3008.8965-.9043.8965-.5166,0-.7754-.2988-.7754-.8965,0-.5127.2588-.7686.7754-.7686.6035,0,.9043.2559.9043.7686ZM295.8914,65.9523c0,.5117-.3008.7686-.9043.7686-.5166,0-.7754-.2568-.7754-.7686,0-.5986.2588-.8975.7754-.8975.6035,0,.9043.2988.9043.8975ZM295.7625,72.2296c0,.4268-.2588.6406-.7754.6406-.4307,0-.6465-.2139-.6465-.6406,0-.5127.2158-.7686.6465-.7686.5166,0,.7754.2559.7754.7686ZM295.6336,78.507c0,.3418-.2158.5127-.6465.5127-.3447,0-.5166-.1709-.5166-.5127,0-.4268.1719-.6406.5166-.6406.4307,0,.6465.2139.6465.6406ZM295.5037,84.7843c0,.3418-.1719.5127-.5166.5127s-.5166-.1709-.5166-.5127.1719-.5127.5166-.5127.5166.1709.5166.5127ZM295.5037,91.0617c0,.2568-.1719.3848-.5166.3848-.2588,0-.3877-.1279-.3877-.3848,0-.2559.1289-.3838.3877-.3838.3447,0,.5166.1279.5166.3838ZM295.3748,97.339c0,.2568-.1289.3848-.3877.3848-.1719,0-.2588-.1279-.2588-.3848,0-.2559.0869-.3838.2588-.3838.2588,0,.3877.1279.3877.3838ZM295.116,109.8947c0,.085-.043.1279-.1289.1279l-.1289-.1279.1289-.1279c.0859,0,.1289.042.1289.1279ZM302.3543,59.5461c0,.5977-.2588.8965-.7754.8965-.6035,0-.9053-.2988-.9053-.8965,0-.5127.3018-.7686.9053-.7686.5166,0,.7754.2559.7754.7686ZM302.3543,65.9523c0,.5117-.2588.7686-.7754.7686-.6035,0-.9053-.2568-.9053-.7686,0-.5986.3018-.8975.9053-.8975.5166,0,.7754.2988.7754.8975ZM302.2244,72.2296c0,.4268-.2148.6406-.6455.6406-.5176,0-.7764-.2139-.7764-.6406,0-.5127.2588-.7686.7764-.7686.4307,0,.6455.2559.6455.7686ZM302.0955,78.507c0,.3418-.1729.5127-.5166.5127-.4316,0-.6465-.1709-.6465-.5127,0-.4268.2148-.6406.6465-.6406.3438,0,.5166.2139.5166.6406ZM302.0955,84.7843c0,.3418-.1729.5127-.5166.5127-.3447,0-.5176-.1709-.5176-.5127s.1729-.5127.5176-.5127c.3438,0,.5166.1709.5166.5127ZM301.9666,91.0617c0,.2568-.1299.3848-.3877.3848-.3447,0-.5176-.1279-.5176-.3848,0-.2559.1729-.3838.5176-.3838.2578,0,.3877.1279.3877.3838ZM301.5789,110.0226c-.0869,0-.1299-.043-.1299-.1279l.1299-.1279.1289.1279c0,.085-.043.1279-.1289.1279ZM308.2986,103.6173c0,.1709-.0859.2559-.2578.2559-.1729,0-.2588-.085-.2588-.2559s.0859-.2568.2588-.2568c.1719,0,.2578.0859.2578.2568ZM308.1697,109.8947c0,.085-.043.1279-.1289.1279-.0869,0-.1299-.043-.1299-.1279l.1299-.1279c.0859,0,.1289.042.1289.1279ZM314.8904,91.0617c0,.2568-.1289.3848-.3877.3848s-.3877-.1279-.3877-.3848c0-.2559.1289-.3838.3877-.3838s.3877.1279.3877.3838ZM314.8904,97.339c0,.2568-.1289.3848-.3877.3848-.1729,0-.2588-.1279-.2588-.3848,0-.2559.0859-.3838.2588-.3838.2588,0,.3877.1279.3877.3838ZM314.7615,103.6173c0,.1709-.0869.2559-.2588.2559-.1729,0-.2588-.085-.2588-.2559s.0859-.2568.2588-.2568c.1719,0,.2588.0859.2588.2568ZM314.6316,109.8947c0,.085-.043.1279-.1289.1279l-.1289-.1279.1289-.1279c.0859,0,.1289.042.1289.1279ZM321.4812,59.8029c0,.2559-.1719.3838-.5166.3838l-.1289-.1279-5.5576-1.9219-.3877-1.2812,6.333,2.1777c.3447.1709.4307.4277.2578.7695ZM321.8699,65.9523c0,.5117-.3018.7686-.9053.7686-.5166,0-.7754-.2568-.7754-.7686,0-.5986.2588-.8975.7754-.8975.6035,0,.9053.2988.9053.8975ZM321.74,72.2296c0,.4268-.2588.6406-.7754.6406-.4307,0-.6465-.2139-.6465-.6406,0-.5127.2158-.7686.6465-.7686.5166,0,.7754.2559.7754.7686ZM321.6111,78.507c0,.3418-.2158.5127-.6465.5127-.3447,0-.5166-.1709-.5166-.5127,0-.4268.1719-.6406.5166-.6406.4307,0,.6465.2139.6465.6406ZM321.4812,84.7843c0,.3418-.1719.5127-.5166.5127s-.5166-.1709-.5166-.5127.1719-.5127.5166-.5127.5166.1709.5166.5127ZM321.4812,91.0617c0,.2568-.1719.3848-.5166.3848-.2588,0-.3877-.1279-.3877-.3848,0-.2559.1289-.3838.3877-.3838.3447,0,.5166.1279.5166.3838ZM321.3523,97.339c0,.2568-.1289.3848-.3877.3848-.1719,0-.2588-.1279-.2588-.3848,0-.2559.0869-.3838.2588-.3838.2588,0,.3877.1279.3877.3838ZM321.2234,103.6173c0,.1709-.0859.2559-.2588.2559-.0859,0-.1289-.085-.1289-.2559s.043-.2568.1289-.2568c.1729,0,.2588.0859.2588.2568ZM321.2234,109.8947c0,.085-.0859.1279-.2588.1279l-.1289-.1279.1289-.1279c.0859,0,.1729.042.2588.1279Z"/>
  <path class="cls-1" d="M321.2234,59.0334l10.5977,3.5879v1.1523l-10.9854-3.7148c-.4307,0-.5176-.2139-.2588-.6406,0-.2559.2158-.3848.6465-.3848ZM328.2019,65.9523c0,.5117-.3018.7686-.9043.7686-.5176,0-.7754-.2568-.7754-.7686,0-.5986.2578-.8975.7754-.8975.6025,0,.9043.2988.9043.8975ZM328.073,72.2296c0,.4268-.2588.6406-.7754.6406-.4307,0-.6465-.2139-.6465-.6406,0-.5127.2158-.7686.6465-.7686.5166,0,.7754.2559.7754.7686ZM327.9441,78.507c0,.3418-.2158.5127-.6465.5127-.3447,0-.5176-.1709-.5176-.5127,0-.4268.1729-.6406.5176-.6406.4307,0,.6465.2139.6465.6406ZM327.8142,84.7843c0,.3418-.1719.5127-.5166.5127s-.5176-.1709-.5176-.5127.1729-.5127.5176-.5127.5166.1709.5166.5127ZM327.8142,91.0617c0,.2568-.1719.3848-.5166.3848-.2588,0-.3877-.1279-.3877-.3848,0-.2559.1289-.3838.3877-.3838.3447,0,.5166.1279.5166.3838ZM327.6853,97.339c0,.2568-.1289.3848-.3877.3848-.1729,0-.2588-.1279-.2588-.3848,0-.2559.0859-.3838.2588-.3838.2588,0,.3877.1279.3877.3838ZM327.5564,103.6173c0,.1709-.0869.2559-.2588.2559-.0859,0-.1289-.085-.1289-.2559s.043-.2568.1289-.2568c.1719,0,.2588.0859.2588.2568ZM327.5564,109.8947c0,.085-.0869.1279-.2588.1279l-.1289-.1279.1289-.1279c.0859,0,.1719.042.2588.1279ZM333.8884,109.8947c0,.085-.0859.1279-.2578.1279l-.1299-.1279.1299-.1279c.0859,0,.1719.042.2578.1279ZM397.4754,84.9123c0,.2568-.1719.3848-.5166.3848h-.1289l-55.9619-18.5762v-1.1533l15.3799,5.125-18.2236-25.623h-.3877l-.1289,39.0742v20.3701h-2.585v-19.2168l.1289-45.6084h2.585l23.0059,32.4131,19.7734,6.5332v-38.8179l2.585-.2563v39.9707l14.2168,4.7402c.3447.1709.4307.3848.2578.6406ZM340.2214,109.8947c0,.085-.0859.1279-.2578.1279l-.1299-.1279.1299-.1279c.0859,0,.1719.042.2578.1279ZM347.0711,72.2296c0,.4268-.2578.6406-.7754.6406-.4307,0-.6455-.2139-.6455-.6406,0-.5127.2148-.7686.6455-.7686.5176,0,.7754.2559.7754.7686ZM346.9421,78.507c0,.3418-.2148.5127-.6465.5127-.3447,0-.5166-.1709-.5166-.5127,0-.4268.1719-.6406.5166-.6406.4316,0,.6465.2139.6465.6406ZM346.8132,84.7843c0,.3418-.1729.5127-.5176.5127s-.5166-.1709-.5166-.5127.1719-.5127.5166-.5127.5176.1709.5176.5127ZM346.8132,91.0617c0,.2568-.1729.3848-.5176.3848-.2578,0-.3877-.1279-.3877-.3848,0-.2559.1299-.3838.3877-.3838.3447,0,.5176.1279.5176.3838ZM346.6834,97.339c0,.2568-.1289.3848-.3877.3848-.1719,0-.2578-.1279-.2578-.3848,0-.2559.0859-.3838.2578-.3838.2588,0,.3877.1279.3877.3838ZM346.5545,103.6173c0,.1709-.0859.2559-.2588.2559-.0859,0-.1289-.085-.1289-.2559s.043-.2568.1289-.2568c.1729,0,.2588.0859.2588.2568ZM346.5545,109.8947c0,.085-.0859.1279-.2588.1279l-.1289-.1279.1289-.1279c.0869,0,.1729.042.2588.1279ZM353.2752,78.507c0,.3418-.2158.5127-.6465.5127-.3447,0-.5166-.1709-.5166-.5127,0-.4268.1719-.6406.5166-.6406.4307,0,.6465.2139.6465.6406ZM353.1462,84.7843c0,.3418-.1729.5127-.5176.5127s-.5166-.1709-.5166-.5127.1719-.5127.5166-.5127.5176.1709.5176.5127ZM353.1462,91.0617c0,.2568-.1729.3848-.5176.3848-.2578,0-.3877-.1279-.3877-.3848,0-.2559.1299-.3838.3877-.3838.3447,0,.5176.1279.5176.3838ZM353.0164,97.339c0,.2568-.1289.3848-.3877.3848-.1719,0-.2578-.1279-.2578-.3848,0-.2559.0859-.3838.2578-.3838.2588,0,.3877.1279.3877.3838ZM352.8875,103.6173c0,.1709-.0859.2559-.2588.2559-.0859,0-.1289-.085-.1289-.2559s.043-.2568.1289-.2568c.1729,0,.2588.0859.2588.2568ZM352.8875,109.8947c0,.085-.0859.1279-.2588.1279l-.1289-.1279.1289-.1279c.0859,0,.1729.042.2588.1279ZM359.4783,84.7843c0,.3418-.1719.5127-.5166.5127s-.5166-.1709-.5166-.5127.1719-.5127.5166-.5127.5166.1709.5166.5127ZM359.4783,91.0617c0,.2568-.1719.3848-.5166.3848-.2588,0-.3877-.1279-.3877-.3848,0-.2559.1289-.3838.3877-.3838.3447,0,.5166.1279.5166.3838ZM359.3494,97.339c0,.2568-.1289.3848-.3877.3848-.1719,0-.2588-.1279-.2588-.3848,0-.2559.0869-.3838.2588-.3838.2588,0,.3877.1279.3877.3838ZM359.2205,103.6173c0,.1709-.0859.2559-.2588.2559-.0859,0-.1289-.085-.1289-.2559s.043-.2568.1289-.2568c.1729,0,.2588.0859.2588.2568ZM359.2205,109.8947c0,.085-.0859.1279-.2588.1279l-.1289-.1279.1289-.1279c.0859,0,.1729.042.2588.1279ZM382.8718,84.7843v1.666l-.1299,18.0635h-2.585l-18.998-26.9033,4.3945,1.4092,14.2158,20.2412h.5176l.1289-15.2451,2.4561.7686ZM365.8113,91.0617c0,.2568-.1719.3848-.5166.3848-.2588,0-.3877-.1279-.3877-.3848,0-.2559.1289-.3838.3877-.3838.3447,0,.5166.1279.5166.3838ZM365.6824,97.339c0,.2568-.1289.3848-.3877.3848-.1729,0-.2588-.1279-.2588-.3848,0-.2559.0859-.3838.2588-.3838.2588,0,.3877.1279.3877.3838ZM365.5535,103.6173c0,.1709-.0869.2559-.2588.2559-.0859,0-.1289-.085-.1289-.2559s.043-.2568.1289-.2568c.1719,0,.2588.0859.2588.2568ZM365.5535,109.8947c0,.085-.0869.1279-.2588.1279l-.1289-.1279.1289-.1279c.0859,0,.1719.042.2588.1279ZM371.8855,103.6173c0,.1709-.0859.2559-.2578.2559-.0859,0-.1299-.085-.1299-.2559s.0439-.2568.1299-.2568c.1719,0,.2578.0859.2578.2568ZM371.8855,109.8947c0,.085-.0859.1279-.2578.1279l-.1299-.1279.1299-.1279c.0859,0,.1719.042.2578.1279ZM378.2185,109.8947c0,.085-.0859.1279-.2578.1279l-.1299-.1279.1299-.1279c.0859,0,.1719.042.2578.1279ZM384.5515,109.8947c0,.085-.0859.1279-.2588.1279l-.1289-.1279.1289-.1279c.0869,0,.1729.042.2588.1279ZM391.1433,91.0617c0,.2568-.1729.3848-.5176.3848-.2578,0-.3877-.1279-.3877-.3848,0-.2559.1299-.3838.3877-.3838.3447,0,.5176.1279.5176.3838ZM391.0134,97.339c0,.2568-.1289.3848-.3877.3848-.1719,0-.2578-.1279-.2578-.3848,0-.2559.0859-.3838.2578-.3838.2588,0,.3877.1279.3877.3838ZM390.8845,103.6173c0,.1709-.0859.2559-.2588.2559-.0859,0-.1289-.085-.1289-.2559s.043-.2568.1289-.2568c.1729,0,.2588.0859.2588.2568ZM390.8845,109.8947c0,.085-.0859.1279-.2588.1279l-.1289-.1279.1289-.1279c.0869,0,.1729.042.2588.1279ZM397.4754,91.0617c0,.2568-.1719.3848-.5166.3848-.2588,0-.3877-.1279-.3877-.3848,0-.2559.1289-.3838.3877-.3838.3447,0,.5166.1279.5166.3838ZM397.3464,97.339c0,.2568-.1289.3848-.3877.3848-.1719,0-.2588-.1279-.2588-.3848,0-.2559.0869-.3838.2588-.3838.2588,0,.3877.1279.3877.3838ZM397.2175,103.6173c0,.1709-.0859.2559-.2588.2559-.0859,0-.1289-.085-.1289-.2559s.043-.2568.1289-.2568c.1729,0,.2588.0859.2588.2568ZM397.2175,109.8947c0,.085-.0859.1279-.2588.1279l-.1289-.1279.1289-.1279c.0859,0,.1729.042.2588.1279Z"/>
</svg>